<svg width="36" height="36" viewBox="0 0 36 36" fill="none" xmlns="http://www.w3.org/2000/svg">
<path opacity="0.3" fill-rule="evenodd" clip-rule="evenodd" d="M10.8843 28.3938L8.96833 30.7023C5.21539 27.5875 3 22.9731 3 18.0001C3 13.0339 5.20923 8.42524 8.95328 5.31036L10.872 7.61658C7.8059 10.1674 6 13.9347 6 18.0001C6 22.0711 7.81094 25.8431 10.8843 28.3938ZM25.1157 28.3938L27.0317 30.7023C30.7846 27.5875 33 22.9731 33 18.0001C33 13.0339 30.7908 8.42524 27.0467 5.31036L25.128 7.61658C28.1941 10.1674 30 13.9347 30 18.0001C30 22.0711 28.1891 25.8431 25.1157 28.3938ZM21.2677 23.7899L23.1763 26.1045C25.5793 24.123 27 21.1761 27 18.0001C27 14.8345 25.5886 11.8962 23.1992 9.91454L21.2841 12.2237C22.9934 13.6414 24 15.7369 24 18.0001C24 20.2707 22.9868 22.3724 21.2677 23.7899ZM12.8237 26.1045L14.7323 23.7899C13.0132 22.3724 12 20.2707 12 18.0001C12 15.7369 13.0066 13.6414 14.7159 12.2237L12.8008 9.91454C10.4114 11.8962 9 14.8345 9 18.0001C9 21.1761 10.4207 24.123 12.8237 26.1045Z" fill="#99EFD0"/>
<path fill-rule="evenodd" clip-rule="evenodd" d="M18 21.0001C19.6569 21.0001 21 19.6569 21 18.0001C21 16.3432 19.6569 15.0001 18 15.0001C16.3431 15.0001 15 16.3432 15 18.0001C15 19.6569 16.3431 21.0001 18 21.0001Z" fill="#99EFD0"/>
</svg>
