<svg width="106" height="26" viewBox="0 0 106 26" fill="none" xmlns="http://www.w3.org/2000/svg">
<g clip-path="url(#clip0)">
<path d="M96.7536 17.8448C92.0942 17.8448 88.3035 14.0593 88.3035 9.40647V0.96814H105.203V9.40647C105.203 14.0588 101.412 17.8448 96.7536 17.8448ZM89.8396 2.50238V9.40647C89.8396 13.2129 92.9408 16.3106 96.7536 16.3106C100.565 16.3106 103.667 13.2134 103.667 9.40647V2.50238H89.8396Z" fill="white"/>
<path d="M100.594 6.08215H92.9126V7.6164H93.9625L93.4307 11.8678H94.979L95.5116 7.6164H97.9952L98.5278 11.8678H100.076L99.5443 7.6164H100.594V6.08215Z" fill="white"/>
<path d="M9.67425 3.50369C14.2069 3.50369 16.6246 5.61583 16.6246 8.63318C16.6246 11.0476 14.8112 12.858 12.394 13.5223V13.5827C16.1713 14.518 17.531 16.7207 17.531 19.0445C17.531 22.3636 15.1134 24.6271 10.5812 24.6271H0.609375V24.0237C2.42275 24.0237 2.42275 24.0237 2.42275 22.0619V6.06843C2.42275 4.10664 2.42275 4.10664 0.609375 4.10664V3.50317H9.67425V3.50369ZM7.86136 13.4614C10.5812 13.4614 11.6381 11.6511 11.6381 8.78401C11.6381 6.21879 10.5806 4.10664 8.76779 4.10664H7.25707V13.4614H7.86136ZM7.25707 14.0649V24.0237H9.3721C11.7892 24.0237 12.5451 21.6093 12.5451 18.8937C12.5451 16.1781 11.1855 14.0655 8.46564 14.0655H7.25707V14.0649Z" fill="white"/>
<path d="M18.7375 17.2338C18.7375 12.1038 22.9681 9.23682 26.7449 9.23682C30.2201 9.23682 33.3624 10.7455 32.4559 15.8755H23.512C23.512 19.9494 25.8385 21.458 28.105 21.458C30.8249 21.458 32.0335 19.9494 32.6378 18.8928H32.9398C32.3356 21.9102 30.2201 24.928 26.4433 24.928C21.4574 24.9285 18.7375 21.3077 18.7375 17.2338ZM23.512 15.272H27.954C28.4676 13.2202 28.8906 9.84023 26.5943 9.84023C24.8716 9.84023 23.6328 11.4399 23.512 15.272Z" fill="white"/>
<path d="M45.3272 13.4614C45.3272 12.1036 44.4207 11.651 43.5144 11.651C42.5777 11.651 41.5504 12.1036 40.4929 13.0088V22.0613C40.4929 24.0231 40.4929 24.0231 42.3057 24.0231V24.6266H33.8447V24.0231C35.6576 24.0231 35.6576 24.0231 35.6576 22.0613V12.5562C35.6576 11.0475 35.6576 11.0475 34.1468 11.0475V10.5949L40.3413 9.23706H40.583L40.4924 12.4053H40.5528C41.701 10.444 43.8769 9.23706 46.0825 9.23706C48.107 9.23706 50.162 10.444 50.162 13.7637V22.0624C50.162 24.0241 50.162 24.0241 51.9749 24.0241V24.6276H44.1186V24.0241C45.3272 24.0241 45.3272 24.0241 45.3272 22.0624V13.4614Z" fill="white"/>
<path d="M61.9447 21.4586C64.6645 21.4586 65.873 19.9499 66.4773 18.8933H66.7799C66.1752 21.9107 64.0602 24.9285 60.2829 24.9285C55.2969 24.9285 52.5776 21.3077 52.5776 17.2338C52.5776 12.1038 56.8082 9.23682 60.585 9.23682C64.3623 9.23682 66.3569 11.0779 66.3569 13.0089C66.3569 14.0645 65.8736 15.1211 64.0606 15.1211C62.55 15.1211 62.2171 14.1858 62.2473 13.5521C62.3989 11.3489 62.2473 9.84023 60.4344 9.84023C58.3194 9.84023 57.3521 12.6469 57.3521 16.147C57.3521 20.1008 59.6786 21.4586 61.9447 21.4586Z" fill="white"/>
<path d="M79.1674 13.4614C79.1674 12.1036 78.2608 11.651 77.3543 11.651C76.4176 11.651 75.3903 12.1036 74.3328 13.0088V22.0614C74.3328 24.0231 74.3328 24.0231 76.1462 24.0231V24.6266H67.6851V24.0231C69.4984 24.0231 69.4984 24.0231 69.4984 22.0614V4.71058C69.4984 3.2014 69.4984 3.2014 67.9877 3.2014V2.74879L74.0915 1.39099H74.3332V12.4053H74.3937C75.5419 10.444 77.7169 9.23712 79.9237 9.23712C81.9484 9.23712 84.0027 10.444 84.0027 13.7636V22.0624C84.0027 24.0242 84.0027 24.0242 85.8165 24.0242V24.6277H77.9589V24.0242C79.1674 24.0242 79.1674 24.0242 79.1674 22.0624V13.4614Z" fill="white"/>
</g>
<defs>
<clipPath id="clip0">
<rect width="104.688" height="25" fill="white" transform="translate(0.609375 0.516846)"/>
</clipPath>
</defs>
</svg>
