<svg width="93" height="26" viewBox="0 0 93 26" fill="none" xmlns="http://www.w3.org/2000/svg">
<g clip-path="url(#clip0)">
<path d="M22.7435 6.76822C22.7433 6.76778 22.7429 6.76697 22.7425 6.76614C22.7414 6.7647 22.7402 6.76284 22.7392 6.7614C22.7135 6.71853 22.6862 6.67711 22.6569 6.63671C22.6493 6.6262 22.6412 6.61631 22.6331 6.6058C22.61 6.5755 22.5862 6.54603 22.561 6.51738C22.5468 6.5011 22.5316 6.48523 22.517 6.46957C22.4965 6.44855 22.4759 6.42773 22.4543 6.40733C22.4345 6.38878 22.414 6.37044 22.3936 6.35313C22.3746 6.33726 22.3558 6.3218 22.3363 6.30655C22.3128 6.288 22.2884 6.27048 22.2638 6.25317C22.2451 6.2404 22.2268 6.22783 22.2076 6.21546C22.1813 6.19897 22.1548 6.18331 22.1278 6.16826C22.1085 6.15734 22.0891 6.14683 22.0693 6.13673C22.0412 6.12251 22.0127 6.10891 21.9837 6.09655C21.9641 6.08789 21.9445 6.07923 21.9242 6.0712C21.8932 6.05903 21.8616 6.04812 21.8299 6.0376C21.8117 6.03183 21.7938 6.02585 21.7754 6.0207C21.7386 6.00998 21.7012 6.0005 21.6636 5.99247C21.6504 5.98979 21.6373 5.98649 21.6241 5.98401C21.5776 5.97495 21.5303 5.96815 21.4834 5.963C21.4784 5.96258 21.474 5.96176 21.4693 5.96135C21.1334 5.92775 20.7843 5.99164 20.4695 6.1695L11.6933 11.1337L5.41689 7.58328L11.6985 4.02985L15.8865 6.39723C16.6824 6.84672 17.7002 6.58003 18.1599 5.80039C18.6195 5.02053 18.3467 4.02305 17.5507 3.57294L12.531 0.735252C12.0161 0.444044 11.3816 0.444044 10.8668 0.735252L1.29621 6.14868C1.03393 6.28738 0.805337 6.49492 0.645363 6.76614C0.185489 7.54622 0.458106 8.54328 1.25405 8.99316L10.8616 14.4282C10.863 14.4291 10.8643 14.4293 10.8655 14.4301C10.9159 14.4583 10.9682 14.4825 11.0211 14.5051C11.0358 14.5115 11.0499 14.5197 11.0645 14.5255C11.0964 14.5383 11.1295 14.5472 11.1619 14.5577C11.3358 14.6152 11.5143 14.6469 11.692 14.6469C11.6925 14.6469 11.6931 14.6469 11.6937 14.6469C11.6939 14.6469 11.6945 14.6469 11.6952 14.6469C11.8769 14.6469 12.0595 14.6142 12.2366 14.554C12.265 14.5443 12.2941 14.537 12.322 14.5257C12.3388 14.5192 12.3549 14.5097 12.3716 14.5024C12.4225 14.4804 12.4729 14.4573 12.5213 14.4301C12.5227 14.4293 12.5242 14.4291 12.5256 14.4282L19.6399 10.4045V17.5112L11.6958 22.0042L3.75267 17.5112V13.0177C3.75267 12.1173 3.00736 11.3875 2.08864 11.3875C1.16952 11.3875 0.424417 12.1173 0.424417 13.0177V18.4524C0.424417 19.0348 0.741264 19.5727 1.25632 19.8639L10.8639 25.2988C11.121 25.4441 11.4085 25.5168 11.6958 25.5168C11.9831 25.5168 12.2706 25.4441 12.5279 25.2988L22.1358 19.8639C22.6509 19.5727 22.9678 19.0348 22.9678 18.4524V7.58328C22.9678 7.2861 22.8855 7.00828 22.7435 6.76822Z" fill="white"/>
<path fill-rule="evenodd" clip-rule="evenodd" d="M31.5984 15.8907C32.1537 16.2506 32.7176 16.5175 33.2902 16.6917C33.8629 16.8658 34.4268 16.9528 34.9821 16.9528C35.5374 16.9528 35.9856 16.8252 36.3269 16.5698C36.6682 16.3144 36.8388 15.9836 36.8388 15.5773C36.8388 15.2407 36.7029 14.9767 36.431 14.7852C36.1591 14.5937 35.8179 14.4224 35.4072 14.2715C34.9965 14.1207 34.5541 13.9668 34.0798 13.8102C33.6055 13.6535 33.163 13.4445 32.7524 13.1833C32.3417 12.9222 32.0004 12.5768 31.7286 12.1474C31.4567 11.7179 31.3208 11.155 31.3208 10.4585C31.3208 9.9246 31.4307 9.4371 31.6505 8.99604C31.8703 8.55497 32.1768 8.17479 32.5701 7.8556C32.9635 7.53641 33.4349 7.28972 33.9843 7.11566C34.5338 6.94154 35.1382 6.85447 35.7976 6.85447C36.3529 6.85447 36.9053 6.90672 37.4548 7.01116C38.0043 7.11566 38.5566 7.27816 39.1119 7.49866V10.0407C38.5913 9.73891 38.0708 9.51547 37.5502 9.37035C37.0296 9.22529 36.5149 9.15272 36.0059 9.15272C35.4737 9.15272 35.0428 9.26879 34.7131 9.50091C34.3835 9.7331 34.2186 10.0407 34.2186 10.4237C34.2186 10.7487 34.3545 11.0041 34.6264 11.1898C34.8982 11.3755 35.2366 11.5409 35.6415 11.686C36.0463 11.8311 36.4888 11.982 36.9689 12.1387C37.449 12.2954 37.8915 12.5072 38.2963 12.7742C38.7012 13.0412 39.0396 13.3923 39.3115 13.8275C39.5833 14.2628 39.7192 14.8345 39.7192 15.5425C39.7192 16.0881 39.6065 16.5901 39.3809 17.0486C39.1553 17.5071 38.8429 17.8988 38.4438 18.2238C38.0448 18.5488 37.5676 18.8013 37.0123 18.9812C36.457 19.1611 35.8497 19.251 35.1903 19.251C33.9757 19.251 32.7784 18.9899 31.5984 18.4676V15.8907ZM40.5625 6.52367H43.3909V10.946C44.1428 10.4005 44.9353 10.1277 45.7681 10.1277C46.2193 10.1277 46.6358 10.2061 47.0175 10.3628C47.3992 10.5195 47.7289 10.74 48.0065 11.0244C48.2842 11.3088 48.5011 11.6483 48.6573 12.0429C48.8134 12.4376 48.8916 12.867 48.8916 13.3313V19.0422H46.0631V13.8537C46.0631 13.4938 45.9503 13.1978 45.7248 12.9657C45.4992 12.7336 45.2129 12.6175 44.8658 12.6175C44.3453 12.6175 43.8536 12.8497 43.3909 13.3139V19.0422H40.5625V6.52367ZM50.0472 10.3367H52.8755V19.0422H50.0472V10.3367ZM49.9084 8.02104C49.9084 7.55672 50.053 7.18241 50.3422 6.89804C50.6314 6.61362 51.0073 6.47144 51.4701 6.47144C51.9096 6.47144 52.2769 6.61362 52.5719 6.89804C52.8669 7.18241 53.0144 7.55672 53.0144 8.02104C53.0144 8.4621 52.8669 8.82772 52.5719 9.11791C52.2769 9.4081 51.9096 9.55316 51.4701 9.55316C51.0073 9.55316 50.6314 9.4081 50.3422 9.11791C50.053 8.82772 49.9084 8.4621 49.9084 8.02104ZM60.0177 14.6894C60.0177 14.051 59.8586 13.5373 59.5405 13.1485C59.2224 12.7597 58.8088 12.5653 58.2998 12.5653C57.7908 12.5653 57.3339 12.7684 56.9291 13.1747V16.2042C57.3339 16.6104 57.7908 16.8135 58.2998 16.8135C58.8088 16.8135 59.2224 16.6162 59.5405 16.2215C59.8586 15.8269 60.0177 15.3162 60.0177 14.6894ZM54.1006 10.3367H56.9291V10.8068C57.5884 10.3541 58.2651 10.1277 58.9592 10.1277C59.5376 10.1277 60.0697 10.2409 60.5556 10.4672C61.0415 10.6936 61.4579 11.007 61.805 11.4074C62.152 11.8079 62.4209 12.2867 62.6119 12.8438C62.803 13.401 62.8983 14.0162 62.8983 14.6894C62.8983 15.3626 62.803 15.9778 62.6119 16.535C62.4209 17.0921 62.152 17.5709 61.805 17.9713C61.4579 18.3718 61.0415 18.6852 60.5556 18.9115C60.0697 19.1379 59.5376 19.251 58.9592 19.251C58.2651 19.251 57.5884 19.0247 56.9291 18.572V22.8551H54.1006V10.3367ZM66.6743 16.8135H68.5305C68.9702 16.8135 69.3315 16.683 69.6149 16.4218C69.8983 16.1606 70.0404 15.8269 70.0404 15.4207C70.0404 15.0144 69.8983 14.6807 69.6149 14.4195C69.3315 14.1583 68.9702 14.0278 68.5305 14.0278H66.6743V16.8135ZM66.6743 11.8688H68.2875C68.6924 11.8688 69.0282 11.747 69.2941 11.5032C69.5601 11.2595 69.6934 10.9518 69.6934 10.5804C69.6934 10.1973 69.5601 9.88691 69.2941 9.64891C69.0282 9.41097 68.6924 9.29204 68.2875 9.29204H66.6743V11.8688ZM63.9149 7.06341H68.8257C69.3577 7.06341 69.8435 7.14466 70.2833 7.30716C70.723 7.46966 71.1042 7.69604 71.4282 7.98616C71.7521 8.27635 72.0037 8.61878 72.1831 9.01341C72.3625 9.4081 72.4522 9.83753 72.4522 10.3018C72.4522 10.8938 72.3133 11.422 72.0355 11.8862C71.7583 12.3505 71.3765 12.693 70.8906 12.9135C71.5154 13.1457 71.9981 13.5083 72.3394 14.0017C72.6808 14.495 72.8515 15.0608 72.8515 15.6992C72.8515 16.1867 72.7586 16.6365 72.5736 17.0486C72.3886 17.4607 72.1314 17.8147 71.8013 18.1107C71.4718 18.4067 71.0787 18.6358 70.6215 18.7983C70.1643 18.9609 69.6641 19.0422 69.1203 19.0422H63.9149V7.06341ZM73.1915 14.6894C73.1915 14.0162 73.3068 13.401 73.5385 12.8438C73.7696 12.2867 74.0935 11.8079 74.5102 11.4074C74.9269 11.007 75.4209 10.6936 75.9939 10.4672C76.5664 10.2409 77.1942 10.1277 77.8763 10.1277C78.559 10.1277 79.1868 10.2409 79.7593 10.4672C80.3317 10.6936 80.8232 11.007 81.2343 11.4074C81.6448 11.8079 81.9656 12.2867 82.1973 12.8438C82.4284 13.401 82.5442 14.0162 82.5442 14.6894C82.5442 15.351 82.4284 15.9633 82.1973 16.5262C81.9656 17.0892 81.6448 17.5709 81.2343 17.9713C80.8232 18.3718 80.3317 18.6852 79.7593 18.9115C79.1868 19.1379 78.559 19.251 77.8763 19.251C77.1942 19.251 76.5664 19.1379 75.9939 18.9115C75.4209 18.6852 74.9269 18.3718 74.5102 17.9713C74.0935 17.5709 73.7696 17.0892 73.5385 16.5262C73.3068 15.9633 73.1915 15.351 73.1915 14.6894ZM76.0892 14.6894C76.0892 15.351 76.2543 15.882 76.5838 16.2825C76.9133 16.683 77.3443 16.8832 77.8763 16.8832C78.397 16.8832 78.825 16.683 79.1607 16.2825C79.4958 15.882 79.664 15.351 79.664 14.6894C79.664 14.0278 79.4958 13.4967 79.1607 13.0963C78.825 12.6958 78.397 12.4956 77.8763 12.4956C77.3443 12.4956 76.9133 12.6958 76.5838 13.0963C76.2543 13.4967 76.0892 14.0278 76.0892 14.6894ZM89.1481 14.6894C89.1481 14.051 88.9893 13.5373 88.671 13.1485C88.3533 12.7597 87.9397 12.5653 87.4308 12.5653C86.9213 12.5653 86.4647 12.7684 86.0598 13.1747V16.2042C86.4647 16.6104 86.9213 16.8135 87.4308 16.8135C87.9397 16.8135 88.3533 16.6162 88.671 16.2215C88.9893 15.8269 89.1481 15.3162 89.1481 14.6894ZM83.2313 6.52367H86.0598V10.8068C86.7188 10.3541 87.3959 10.1277 88.0898 10.1277C88.6685 10.1277 89.2004 10.2409 89.6863 10.4672C90.1721 10.6936 90.5888 11.007 90.9358 11.4074C91.2827 11.8079 91.5518 12.2867 91.7424 12.8438C91.9336 13.401 92.0289 14.0162 92.0289 14.6894C92.0289 15.3626 91.9336 15.9778 91.7424 16.535C91.5518 17.0921 91.2827 17.5709 90.9358 17.9713C90.5888 18.3718 90.1721 18.6852 89.6863 18.9115C89.2004 19.1379 88.6685 19.251 88.0898 19.251C87.3959 19.251 86.7188 19.0247 86.0598 18.572V19.0422H83.2313V6.52367Z" fill="white"/>
</g>
<defs>
<clipPath id="clip0">
<rect width="92.1875" height="25" fill="white" transform="translate(0.421875 0.516846)"/>
</clipPath>
</defs>
</svg>
