<svg width="56" height="26" viewBox="0 0 56 26" fill="none" xmlns="http://www.w3.org/2000/svg">
<g clip-path="url(#clip0)">
<path fill-rule="evenodd" clip-rule="evenodd" d="M9.98391 11.3644C9.80473 11.2048 9.55449 11.1514 9.32545 11.2237L3.09376 13.1901L11.9982 4.67253C12.2724 4.40968 12.2816 3.97405 12.0191 3.6996C12.0063 3.68645 11.9936 3.6737 11.9797 3.66171L8.65547 0.691495C8.37164 0.438308 7.9368 0.463433 7.68383 0.747158C7.65485 0.780014 7.62898 0.81519 7.60661 0.852685L0.371216 13.003C0.241461 13.221 0.284327 13.5008 0.473939 13.6698L1.88386 14.9315C2.05726 15.0861 2.29707 15.1422 2.52106 15.0799L7.56952 13.6728L1.75875 22.8035C1.47838 23.2445 2.05996 23.7223 2.43725 23.3605L12.1446 14.0548C12.355 13.8518 12.3612 13.5163 12.1581 13.3057C12.1492 13.2964 12.1399 13.2875 12.1302 13.2786L9.98391 11.3644Z" fill="white"/>
<path fill-rule="evenodd" clip-rule="evenodd" d="M55.3034 10.0623L54.3394 9.20266C54.2085 9.08585 54.0078 9.09716 53.8909 9.22797C53.8648 9.2576 53.8438 9.29185 53.8301 9.32928L51.8476 14.6773C50.898 17.2394 49.7723 18.1165 49.0662 18.1165C48.8406 18.1165 48.5195 17.9525 48.5195 17.4061C48.5195 17.2203 48.5523 16.8277 48.7822 16.2073L50.6708 11.1158C50.8088 10.7443 50.7047 10.3263 50.409 10.0627L49.4446 9.20266C49.3137 9.08585 49.113 9.09716 48.9961 9.22797C48.97 9.2576 48.9489 9.29185 48.9353 9.32928L46.9531 14.6773C46.0039 17.2394 44.8778 18.1165 44.1725 18.1165C43.9465 18.1165 43.6254 17.9525 43.6254 17.4061C43.6254 17.2203 43.6586 16.8277 43.8877 16.2073L48.0122 5.0741C48.1501 4.70292 48.0461 4.285 47.7508 4.02092L46.786 3.16093C46.6554 3.04408 46.4547 3.05577 46.3379 3.18625C46.3114 3.21585 46.2907 3.25052 46.2767 3.28752L42.0556 14.6773C41.7555 15.4863 41.6152 16.3089 41.6152 16.788C41.6152 18.4083 42.709 19.3383 43.8873 19.3383C44.7707 19.3383 45.746 18.7732 46.6293 17.6098C46.9317 18.7132 47.8244 19.3383 48.7818 19.3383C49.3152 19.3383 49.8833 19.13 50.4448 18.712L49.0565 22.455C47.621 21.775 45.9825 21.6582 44.4652 22.1287C44.2801 22.1852 44.3183 22.455 44.5092 22.4737C46.4844 22.6595 48.1096 23.5133 49.3094 25.1176C49.5248 25.4035 49.9312 25.4607 50.2169 25.2453C50.3158 25.171 50.3914 25.0701 50.4343 24.954L55.5641 11.1174C55.7028 10.7455 55.5995 10.3267 55.3034 10.0623Z" fill="white"/>
<path fill-rule="evenodd" clip-rule="evenodd" d="M34.6135 18.1084C34.2267 18.1084 33.9383 17.7282 33.9383 17.1618C33.9383 16.9725 33.9973 16.5217 34.229 15.8898C35.5546 12.4318 37.3582 10.555 38.1671 10.555C38.7014 10.555 38.7829 11.111 38.7829 11.7734C38.7829 14.4726 36.3754 18.1064 34.6135 18.1064V18.1084ZM38.9049 8.94128C37.9507 8.94128 37.0635 9.48935 36.2703 10.326L38.2954 4.8173C38.4347 4.43868 38.3296 4.01282 38.0314 3.74413L37.0553 2.86743C36.9234 2.74837 36.7204 2.75988 36.6028 2.89323C36.576 2.92339 36.5552 2.95832 36.541 2.99642L32.2787 14.602C31.9758 15.4267 31.8345 16.2645 31.8345 16.7527C31.8345 18.3243 32.935 19.3514 34.4309 19.3514C37.9606 19.3514 41.1456 15.1663 41.1456 11.7908C41.1436 10.1378 40.3477 8.94128 38.9049 8.94128Z" fill="white"/>
<path fill-rule="evenodd" clip-rule="evenodd" d="M25.5955 18.1084C25.2082 18.1084 24.9194 17.7282 24.9194 17.1618C24.9194 16.9725 24.9785 16.5217 25.2105 15.8898C26.5378 12.4318 28.3437 10.555 29.1537 10.555C29.6891 10.555 29.7706 11.111 29.7706 11.7734C29.7699 14.4726 27.3615 18.1064 25.595 18.1064L25.5955 18.1084ZM27.2548 10.326L29.2821 4.8173C29.4216 4.43868 29.3168 4.01282 29.0178 3.74413L28.0407 2.86743C27.9084 2.74837 27.7055 2.75988 27.5873 2.89323C27.5605 2.92339 27.5397 2.95832 27.5258 2.99642L23.2577 14.602C22.2964 17.2122 21.159 18.1064 20.4452 18.1064C20.2167 18.1064 19.8925 17.9397 19.8925 17.3825C19.8925 17.1932 19.9255 16.7932 20.158 16.1609L22.066 10.9729C22.2058 10.5947 22.1006 10.1684 21.802 9.89935L20.8265 9.02303C20.6946 8.90435 20.4913 8.91585 20.3735 9.04885C20.3467 9.07941 20.3258 9.11391 20.3116 9.15241L18.3072 14.602C17.3474 17.2127 16.2089 18.1064 15.4955 18.1064C15.2669 18.1064 14.9423 17.9397 14.9423 17.3825C14.9423 17.1932 14.9754 16.7932 15.2075 16.1609L17.1154 10.9729C17.2549 10.5947 17.1497 10.1688 16.8503 9.89972L15.8756 9.02341C15.7436 8.90478 15.5408 8.91628 15.4225 9.04922C15.3957 9.07941 15.3749 9.11472 15.3607 9.15278L13.357 14.602C13.0541 15.4267 12.9119 16.2645 12.9119 16.7527C12.9119 18.4041 14.0173 19.3514 15.2086 19.3514C16.1018 19.3514 17.0879 18.7755 17.981 17.5905C18.2867 18.7148 19.1892 19.3514 20.1568 19.3514C21.0527 19.3514 22.0435 18.7723 22.9362 17.5802C23.2561 18.6703 24.1976 19.3514 25.4091 19.3514C28.9441 19.3514 32.1348 15.1663 32.1348 11.7908C32.134 10.1378 31.337 8.94128 29.8928 8.94128C28.937 8.94128 28.0487 9.48935 27.2548 10.326Z" fill="white"/>
</g>
<defs>
<clipPath id="clip0">
<rect width="55.4688" height="25" fill="white" transform="translate(0.296875 0.516846)"/>
</clipPath>
</defs>
</svg>
