<svg width="498" height="366" viewBox="0 0 498 366" fill="none" xmlns="http://www.w3.org/2000/svg">
<g opacity="0.7">
<path d="M177.907 64.2422L45.6907 64.2422" stroke="#13C296" stroke-width="4.38967" stroke-linecap="round" stroke-linejoin="round" stroke-dasharray="0.88 17.56"/>
<path d="M177.907 48.7784L45.6907 48.7784" stroke="#13C296" stroke-width="4.38967" stroke-linecap="round" stroke-linejoin="round" stroke-dasharray="0.88 17.56"/>
<path d="M177.907 33.3143L45.6907 33.3143" stroke="#13C296" stroke-width="4.38967" stroke-linecap="round" stroke-linejoin="round" stroke-dasharray="0.88 17.56"/>
<path d="M177.907 17.8504L45.6907 17.8504" stroke="#13C296" stroke-width="4.38967" stroke-linecap="round" stroke-linejoin="round" stroke-dasharray="0.88 17.56"/>
<path d="M177.907 2.3866L45.6907 2.3866" stroke="#13C296" stroke-width="4.38967" stroke-linecap="round" stroke-linejoin="round" stroke-dasharray="0.88 17.56"/>
</g>
<path fill-rule="evenodd" clip-rule="evenodd" d="M43.9129 365.268C43.9129 332.814 43.9129 306.505 43.9129 306.505C76.3667 306.505 102.676 332.814 102.676 365.268C102.676 365.268 102.676 365.268 43.9129 365.268Z" fill="#13C296"/>
<path fill-rule="evenodd" clip-rule="evenodd" d="M111.567 342.072C111.567 281.008 111.567 231.505 111.567 231.505C50.5026 231.505 1 281.008 1 342.072C1 342.072 1 342.072 111.567 342.072Z" stroke="#3056D3" stroke-width="1.3169"/>
<g opacity="0.7">
<path d="M495.072 298.387H429.351" stroke="#13C296" stroke-width="4.38967" stroke-linecap="round" stroke-linejoin="round" stroke-dasharray="0.88 17.56"/>
<path d="M495.072 282.923H429.351" stroke="#13C296" stroke-width="4.38967" stroke-linecap="round" stroke-linejoin="round" stroke-dasharray="0.88 17.56"/>
<path d="M495.072 267.459H429.351" stroke="#13C296" stroke-width="4.38967" stroke-linecap="round" stroke-linejoin="round" stroke-dasharray="0.88 17.56"/>
<path d="M495.072 251.995H429.351" stroke="#13C296" stroke-width="4.38967" stroke-linecap="round" stroke-linejoin="round" stroke-dasharray="0.88 17.56"/>
<path d="M495.072 236.531H429.351" stroke="#13C296" stroke-width="4.38967" stroke-linecap="round" stroke-linejoin="round" stroke-dasharray="0.88 17.56"/>
</g>
</svg>
