<svg width="428" height="617" viewBox="0 0 428 617" fill="none" xmlns="http://www.w3.org/2000/svg">
<g opacity="0.2">
<path d="M90.2827 180.923C88.3564 182.035 85.8919 181.375 84.7797 179.448C83.6676 177.522 84.328 175.058 86.2542 173.945C88.1805 172.833 90.645 173.494 91.7572 175.42C92.857 177.325 92.2089 179.811 90.2827 180.923Z" fill="url(#paint0_linear)"/>
<path d="M8.8376 222.494L9.50488 223.65L86.556 179.165L85.8887 178.009L8.8376 222.494Z" fill="url(#paint1_linear)"/>
<path d="M86.7709 393.956C84.8446 395.068 82.3802 394.408 81.268 392.482C80.1559 390.555 80.8162 388.091 82.7425 386.979C84.6688 385.867 87.1333 386.527 88.2454 388.453C89.3576 390.38 88.6972 392.844 86.7709 393.956Z" fill="url(#paint2_linear)"/>
<path d="M5.33858 435.549L6.00586 436.705L83.0784 392.207L82.4111 391.051L5.33858 435.549Z" fill="url(#paint3_linear)"/>
<path d="M143.466 181.152C141.54 182.264 139.075 181.604 137.963 179.677C136.851 177.751 137.512 175.287 139.438 174.174C141.364 173.062 143.829 173.723 144.941 175.649C146.053 177.575 145.393 180.04 143.466 181.152Z" fill="url(#paint4_linear)"/>
<path d="M62.0212 222.723L62.6885 223.879L139.74 179.394L139.072 178.238L62.0212 222.723Z" fill="url(#paint5_linear)"/>
<path d="M57.7739 111.568C55.8476 112.68 53.3831 112.02 52.2709 110.093C51.1588 108.167 51.8192 105.703 53.7454 104.59C55.6717 103.478 58.1362 104.139 59.2484 106.065C60.3482 107.97 59.7001 110.456 57.7739 111.568Z" fill="url(#paint6_linear)"/>
<path d="M14.8542 130.896L15.5215 132.052L54.0471 109.809L53.3798 108.654L14.8542 130.896Z" fill="url(#paint7_linear)"/>
<path d="M160.984 233.935C159.058 235.047 156.593 234.386 155.481 232.46C154.369 230.534 155.029 228.069 156.955 226.957C158.882 225.845 161.346 226.505 162.458 228.432C163.57 230.358 162.91 232.822 160.984 233.935Z" fill="url(#paint8_linear)"/>
<path d="M79.5515 275.527L80.2188 276.683L157.291 232.185L156.624 231.029L79.5515 275.527Z" fill="url(#paint9_linear)"/>
<path d="M89.8188 432.748C87.8925 433.86 85.428 433.2 84.3159 431.274C83.2037 429.347 83.8641 426.883 85.7904 425.771C87.7167 424.658 90.1812 425.319 91.2933 427.245C92.4054 429.171 91.7451 431.636 89.8188 432.748Z" fill="url(#paint10_linear)"/>
<path d="M8.39522 474.307L9.0625 475.463L86.1136 430.977L85.4463 429.822L8.39522 474.307Z" fill="url(#paint11_linear)"/>
<path d="M62.1157 157.147C60.1894 158.259 57.7249 157.599 56.6128 155.672C55.5006 153.746 56.161 151.282 58.0873 150.17C60.0135 149.057 62.478 149.718 63.5902 151.644C64.7237 153.558 64.0633 156.022 62.1157 157.147Z" fill="url(#paint12_linear)"/>
<path d="M-19.2952 198.727L-18.6279 199.883L58.4446 155.385L57.7773 154.229L-19.2952 198.727Z" fill="url(#paint13_linear)"/>
<path d="M103.692 519.797C101.766 520.909 99.3011 520.249 98.1889 518.322C97.0768 516.396 97.7372 513.932 99.6634 512.82C101.59 511.707 104.054 512.368 105.166 514.294C106.278 516.22 105.618 518.685 103.692 519.797Z" fill="url(#paint14_linear)"/>
<path d="M22.2595 561.39L22.9268 562.546L99.9993 518.048L99.332 516.892L22.2595 561.39Z" fill="url(#paint15_linear)"/>
<path d="M353.34 213.198C351.414 214.311 348.949 213.65 347.837 211.724C346.725 209.798 347.386 207.333 349.312 206.221C351.238 205.109 353.703 205.769 354.815 207.696C355.948 209.609 355.267 212.086 353.34 213.198Z" fill="url(#paint16_linear)"/>
<path d="M83.0896 363.806L83.7568 364.961L349.647 211.449L348.98 210.294L83.0896 363.806Z" fill="url(#paint17_linear)"/>
<path d="M384.873 300.439C382.947 301.551 380.483 300.89 379.371 298.964C378.258 297.038 378.919 294.573 380.845 293.461C382.771 292.349 385.236 293.009 386.348 294.936C387.481 296.85 386.821 299.314 384.873 300.439Z" fill="url(#paint18_linear)"/>
<path d="M-27.6136 533.137L-26.9463 534.293L381.189 298.656L380.522 297.5L-27.6136 533.137Z" fill="url(#paint19_linear)"/>
<path d="M115.688 153.156C113.762 154.268 111.297 153.608 110.185 151.682C109.073 149.755 109.733 147.291 111.66 146.179C113.586 145.067 116.05 145.727 117.162 147.653C118.275 149.58 117.614 152.044 115.688 153.156Z" fill="url(#paint20_linear)"/>
<path d="M-154.563 303.763L-153.896 304.919L111.995 151.407L111.328 150.251L-154.563 303.763Z" fill="url(#paint21_linear)"/>
<path d="M247.876 202.145C245.95 203.257 243.486 202.597 242.373 200.67C241.261 198.744 241.922 196.28 243.848 195.168C245.774 194.055 248.239 194.716 249.351 196.642C250.484 198.556 249.803 201.033 247.876 202.145Z" fill="url(#paint22_linear)"/>
<path d="M-22.3655 352.718L-21.6982 353.874L244.192 200.362L243.525 199.206L-22.3655 352.718Z" fill="url(#paint23_linear)"/>
<path d="M308.578 356.76C306.651 357.872 304.187 357.211 303.075 355.285C301.963 353.359 302.623 350.894 304.549 349.782C306.475 348.67 308.94 349.33 310.052 351.257C311.164 353.183 310.504 355.647 308.578 356.76Z" fill="url(#paint24_linear)"/>
<path d="M38.3269 507.367L38.9941 508.522L304.885 355.01L304.217 353.855L38.3269 507.367Z" fill="url(#paint25_linear)"/>
<path d="M-1.00738 247.356C-2.93366 248.468 -5.39816 247.808 -6.51029 245.881C-7.62243 243.955 -6.96207 241.491 -5.03579 240.378C-3.10951 239.266 -0.645021 239.927 0.467116 241.853C1.60066 243.767 0.940301 246.231 -1.00738 247.356Z" fill="url(#paint26_linear)"/>
<path d="M166.966 357.387C165.04 358.499 162.575 357.839 161.463 355.913C160.351 353.986 161.012 351.522 162.938 350.41C164.864 349.297 167.329 349.958 168.441 351.884C169.553 353.81 168.893 356.275 166.966 357.387Z" fill="url(#paint27_linear)"/>
<path d="M15.4899 439.391L16.1572 440.547L163.261 355.616L162.593 354.461L15.4899 439.391Z" fill="url(#paint28_linear)"/>
</g>
<defs>
<linearGradient id="paint0_linear" x1="68.6169" y1="188.76" x2="7.97775" y2="223.77" gradientUnits="userSpaceOnUse">
<stop stop-color="#A4FFFF"/>
<stop offset="1" stop-color="#A4FFFF" stop-opacity="0"/>
</linearGradient>
<linearGradient id="paint1_linear" x1="68.614" y1="188.758" x2="7.97694" y2="223.767" gradientUnits="userSpaceOnUse">
<stop stop-color="#A4FFFF"/>
<stop offset="1" stop-color="#A4FFFF" stop-opacity="0"/>
</linearGradient>
<linearGradient id="paint2_linear" x1="65.1123" y1="401.81" x2="4.45496" y2="436.83" gradientUnits="userSpaceOnUse">
<stop stop-color="#A4FFFF"/>
<stop offset="1" stop-color="#A4FFFF" stop-opacity="0"/>
</linearGradient>
<linearGradient id="paint3_linear" x1="65.1189" y1="401.806" x2="4.47882" y2="436.817" gradientUnits="userSpaceOnUse">
<stop stop-color="#A4FFFF"/>
<stop offset="1" stop-color="#A4FFFF" stop-opacity="0"/>
</linearGradient>
<linearGradient id="paint4_linear" x1="121.81" y1="188.987" x2="61.188" y2="223.987" gradientUnits="userSpaceOnUse">
<stop stop-color="#A4FFFF"/>
<stop offset="1" stop-color="#A4FFFF" stop-opacity="0"/>
</linearGradient>
<linearGradient id="paint5_linear" x1="121.804" y1="188.989" x2="61.1666" y2="223.998" gradientUnits="userSpaceOnUse">
<stop stop-color="#A4FFFF"/>
<stop offset="1" stop-color="#A4FFFF" stop-opacity="0"/>
</linearGradient>
<linearGradient id="paint6_linear" x1="36.107" y1="119.404" x2="-24.5322" y2="154.414" gradientUnits="userSpaceOnUse">
<stop stop-color="#A4FFFF"/>
<stop offset="1" stop-color="#A4FFFF" stop-opacity="0"/>
</linearGradient>
<linearGradient id="paint7_linear" x1="44.9192" y1="114.316" x2="14.6" y2="131.821" gradientUnits="userSpaceOnUse">
<stop stop-color="#A4FFFF"/>
<stop offset="1" stop-color="#A4FFFF" stop-opacity="0"/>
</linearGradient>
<linearGradient id="paint8_linear" x1="139.328" y1="241.774" x2="78.6887" y2="276.784" gradientUnits="userSpaceOnUse">
<stop stop-color="#A4FFFF"/>
<stop offset="1" stop-color="#A4FFFF" stop-opacity="0"/>
</linearGradient>
<linearGradient id="paint9_linear" x1="139.328" y1="241.775" x2="78.6898" y2="276.785" gradientUnits="userSpaceOnUse">
<stop stop-color="#A4FFFF"/>
<stop offset="1" stop-color="#A4FFFF" stop-opacity="0"/>
</linearGradient>
<linearGradient id="paint10_linear" x1="68.162" y1="440.585" x2="7.52292" y2="475.595" gradientUnits="userSpaceOnUse">
<stop stop-color="#A4FFFF"/>
<stop offset="1" stop-color="#A4FFFF" stop-opacity="0"/>
</linearGradient>
<linearGradient id="paint11_linear" x1="68.1629" y1="440.585" x2="7.52601" y2="475.594" gradientUnits="userSpaceOnUse">
<stop stop-color="#A4FFFF"/>
<stop offset="1" stop-color="#A4FFFF" stop-opacity="0"/>
</linearGradient>
<linearGradient id="paint12_linear" x1="40.4664" y1="164.987" x2="-20.1909" y2="200.008" gradientUnits="userSpaceOnUse">
<stop stop-color="#A4FFFF"/>
<stop offset="1" stop-color="#A4FFFF" stop-opacity="0"/>
</linearGradient>
<linearGradient id="paint13_linear" x1="40.4711" y1="164.983" x2="-20.1666" y2="199.992" gradientUnits="userSpaceOnUse">
<stop stop-color="#A4FFFF"/>
<stop offset="1" stop-color="#A4FFFF" stop-opacity="0"/>
</linearGradient>
<linearGradient id="paint14_linear" x1="82.0291" y1="527.643" x2="21.3901" y2="562.653" gradientUnits="userSpaceOnUse">
<stop stop-color="#A4FFFF"/>
<stop offset="1" stop-color="#A4FFFF" stop-opacity="0"/>
</linearGradient>
<linearGradient id="paint15_linear" x1="82.0288" y1="527.642" x2="21.3902" y2="562.652" gradientUnits="userSpaceOnUse">
<stop stop-color="#A4FFFF"/>
<stop offset="1" stop-color="#A4FFFF" stop-opacity="0"/>
</linearGradient>
<linearGradient id="paint16_linear" x1="317.126" y1="229.445" x2="209.134" y2="291.795" gradientUnits="userSpaceOnUse">
<stop stop-color="#A4FFFF"/>
<stop offset="1" stop-color="#A4FFFF" stop-opacity="0"/>
</linearGradient>
<linearGradient id="paint17_linear" x1="290.103" y1="245.045" x2="91.4473" y2="359.74" gradientUnits="userSpaceOnUse">
<stop stop-color="#A4FFFF"/>
<stop offset="1" stop-color="#A4FFFF" stop-opacity="0"/>
</linearGradient>
<linearGradient id="paint18_linear" x1="348.662" y1="316.678" x2="240.67" y2="379.027" gradientUnits="userSpaceOnUse">
<stop stop-color="#A4FFFF"/>
<stop offset="1" stop-color="#A4FFFF" stop-opacity="0"/>
</linearGradient>
<linearGradient id="paint19_linear" x1="289.962" y1="350.566" x2="-14.9667" y2="526.617" gradientUnits="userSpaceOnUse">
<stop stop-color="#A4FFFF"/>
<stop offset="1" stop-color="#A4FFFF" stop-opacity="0"/>
</linearGradient>
<linearGradient id="paint20_linear" x1="79.4754" y1="169.414" x2="-28.5169" y2="231.764" gradientUnits="userSpaceOnUse">
<stop stop-color="#A4FFFF"/>
<stop offset="1" stop-color="#A4FFFF" stop-opacity="0"/>
</linearGradient>
<linearGradient id="paint21_linear" x1="52.4521" y1="185.014" x2="-146.204" y2="299.708" gradientUnits="userSpaceOnUse">
<stop stop-color="#A4FFFF"/>
<stop offset="1" stop-color="#A4FFFF" stop-opacity="0"/>
</linearGradient>
<linearGradient id="paint22_linear" x1="211.66" y1="218.386" x2="103.668" y2="280.736" gradientUnits="userSpaceOnUse">
<stop stop-color="#A4FFFF"/>
<stop offset="1" stop-color="#A4FFFF" stop-opacity="0"/>
</linearGradient>
<linearGradient id="paint23_linear" x1="184.635" y1="233.988" x2="-14.0193" y2="348.681" gradientUnits="userSpaceOnUse">
<stop stop-color="#A4FFFF"/>
<stop offset="1" stop-color="#A4FFFF" stop-opacity="0"/>
</linearGradient>
<linearGradient id="paint24_linear" x1="272.361" y1="373.009" x2="164.368" y2="435.359" gradientUnits="userSpaceOnUse">
<stop stop-color="#A4FFFF"/>
<stop offset="1" stop-color="#A4FFFF" stop-opacity="0"/>
</linearGradient>
<linearGradient id="paint25_linear" x1="245.339" y1="388.611" x2="46.6829" y2="503.304" gradientUnits="userSpaceOnUse">
<stop stop-color="#A4FFFF"/>
<stop offset="1" stop-color="#A4FFFF" stop-opacity="0"/>
</linearGradient>
<linearGradient id="paint26_linear" x1="-37.2292" y1="263.604" x2="-145.255" y2="325.973" gradientUnits="userSpaceOnUse">
<stop stop-color="#A4FFFF"/>
<stop offset="1" stop-color="#A4FFFF" stop-opacity="0"/>
</linearGradient>
<linearGradient id="paint27_linear" x1="130.748" y1="373.631" x2="22.7884" y2="435.962" gradientUnits="userSpaceOnUse">
<stop stop-color="#A4FFFF"/>
<stop offset="1" stop-color="#A4FFFF" stop-opacity="0"/>
</linearGradient>
<linearGradient id="paint28_linear" x1="130.167" y1="373.966" x2="20.2566" y2="437.423" gradientUnits="userSpaceOnUse">
<stop stop-color="#A4FFFF"/>
<stop offset="1" stop-color="#A4FFFF" stop-opacity="0"/>
</linearGradient>
</defs>
</svg>
