<svg width="261" height="554" viewBox="0 0 261 554" fill="none" xmlns="http://www.w3.org/2000/svg">
<path d="M176.178 338.139C176.178 335.914 177.982 334.11 180.207 334.11C182.431 334.11 184.235 335.914 184.235 338.139C184.235 340.363 182.431 342.167 180.207 342.167C178.007 342.167 176.178 340.363 176.178 338.139Z" fill="url(#paint0_linear)"/>
<path d="M180.899 246.82H179.564V335.791H180.899V246.82Z" fill="url(#paint1_linear)"/>
<path d="M-6.55811 228.581C-6.55811 226.356 -4.75397 224.552 -2.5297 224.552C-0.305422 224.552 1.4987 226.356 1.4987 228.581C1.4987 230.805 -0.305422 232.609 -2.5297 232.609C-4.75397 232.609 -6.55811 230.805 -6.55811 228.581Z" fill="url(#paint2_linear)"/>
<path d="M43.5127 133.901C43.5127 131.677 45.3168 129.873 47.5411 129.873C49.7654 129.873 51.5695 131.677 51.5695 133.901C51.5695 136.125 49.7654 137.929 47.5411 137.929C45.3168 137.929 43.5127 136.125 43.5127 133.901Z" fill="url(#paint3_linear)"/>
<path d="M48.233 42.5822H46.8984V131.553H48.233V42.5822Z" fill="url(#paint4_linear)"/>
<path d="M83.7471 154.34C83.7471 152.115 85.5512 150.311 87.7755 150.311C89.9998 150.311 91.8039 152.115 91.8039 154.34C91.8039 156.564 89.9998 158.368 87.7755 158.368C85.5759 158.393 83.7471 156.589 83.7471 154.34Z" fill="url(#paint5_linear)"/>
<path d="M88.4674 63.0455H87.1328V152.041H88.4674V63.0455Z" fill="url(#paint6_linear)"/>
<path d="M149.388 384.082C149.388 381.858 151.192 380.054 153.416 380.054C155.641 380.054 157.445 381.858 157.445 384.082C157.445 386.307 155.641 388.111 153.416 388.111C151.192 388.111 149.388 386.307 149.388 384.082Z" fill="url(#paint7_linear)"/>
<path d="M154.108 292.764H152.774V381.735H154.108V292.764Z" fill="url(#paint8_linear)"/>
<path d="M211.742 124.954C211.742 122.73 213.546 120.926 215.77 120.926C217.994 120.926 219.799 122.73 219.799 124.954C219.799 127.179 217.994 128.983 215.77 128.983C213.546 128.983 211.742 127.179 211.742 124.954Z" fill="url(#paint9_linear)"/>
<path d="M216.437 33.6604H215.103V122.631H216.437V33.6604Z" fill="url(#paint10_linear)"/>
<path d="M100.553 121C100.553 118.776 102.357 116.972 104.581 116.972C106.805 116.972 108.61 118.776 108.61 121C108.61 123.224 106.805 125.029 104.581 125.029C102.357 125.029 100.553 123.224 100.553 121Z" fill="url(#paint11_linear)"/>
<path d="M105.273 74.1917H103.939V118.677H105.273V74.1917Z" fill="url(#paint12_linear)"/>
<path d="M252.495 344.663C252.495 342.439 254.3 340.635 256.524 340.635C258.748 340.635 260.552 342.439 260.552 344.663C260.552 346.888 258.748 348.692 256.524 348.692C254.324 348.692 252.495 346.888 252.495 344.663Z" fill="url(#paint13_linear)"/>
<path d="M257.216 297.83H255.881V342.316H257.216V297.83Z" fill="url(#paint14_linear)"/>
<path d="M20.7261 108.94C20.7261 106.715 22.5302 104.911 24.7545 104.911C26.9787 104.911 28.7829 106.715 28.7829 108.94C28.7829 111.164 26.9787 112.968 24.7545 112.968C22.5302 112.968 20.7261 111.164 20.7261 108.94Z" fill="url(#paint15_linear)"/>
<path d="M25.4464 62.1063H24.1118V106.592H25.4464V62.1063Z" fill="url(#paint16_linear)"/>
<path d="M150.97 47.3026C150.97 45.0783 152.774 43.2742 154.998 43.2742C157.222 43.2742 159.027 45.0783 159.027 47.3026C159.027 49.5269 157.222 51.331 154.998 51.331C152.799 51.3557 150.97 49.5269 150.97 47.3026Z" fill="url(#paint17_linear)"/>
<path d="M155.69 0.494019H154.355V44.9795H155.69V0.494019Z" fill="url(#paint18_linear)"/>
<path d="M94.918 372.862C94.918 370.638 96.7221 368.834 98.9464 368.834C101.171 368.834 102.975 370.638 102.975 372.862C102.975 375.086 101.171 376.89 98.9464 376.89C96.7221 376.89 94.918 375.086 94.918 372.862Z" fill="url(#paint19_linear)"/>
<path d="M99.6136 281.543H98.2791V370.539H99.6136V281.543Z" fill="url(#paint20_linear)"/>
<path d="M210.852 325.634C210.852 323.409 212.656 321.605 214.88 321.605C217.105 321.605 218.909 323.409 218.909 325.634C218.909 327.858 217.105 329.662 214.88 329.662C212.656 329.687 210.852 327.883 210.852 325.634Z" fill="url(#paint21_linear)"/>
<path d="M215.548 234.339H214.213V323.335H215.548V234.339Z" fill="url(#paint22_linear)"/>
<path d="M16.6978 549.815C16.6978 547.591 18.5019 545.787 20.7262 545.787C22.9504 545.787 24.7546 547.591 24.7546 549.815C24.7546 552.04 22.9504 553.844 20.7262 553.844C18.5019 553.869 16.6978 552.04 16.6978 549.815Z" fill="url(#paint23_linear)"/>
<path d="M21.3934 240.468H20.0588V547.492H21.3934V240.468Z" fill="url(#paint24_linear)"/>
<path d="M187.522 374.024C187.522 371.8 189.326 369.995 191.55 369.995C193.775 369.995 195.579 371.8 195.579 374.024C195.579 376.248 193.775 378.052 191.55 378.052C189.326 378.052 187.522 376.248 187.522 374.024Z" fill="url(#paint25_linear)"/>
<path d="M192.218 64.6766H190.883V371.701H192.218V64.6766Z" fill="url(#paint26_linear)"/>
<path d="M79.002 464.008C79.002 461.784 80.8061 459.98 83.0304 459.98C85.2546 459.98 87.0588 461.784 87.0588 464.008C87.0588 466.232 85.2546 468.037 83.0304 468.037C80.8061 468.061 79.002 466.232 79.002 464.008Z" fill="url(#paint27_linear)"/>
<path d="M83.7225 154.686H82.3879V461.71H83.7225V154.686Z" fill="url(#paint28_linear)"/>
<path d="M164.291 225.862C164.291 223.638 166.095 221.834 168.319 221.834C170.543 221.834 172.347 223.638 172.347 225.862C172.347 228.087 170.543 229.891 168.319 229.891C166.095 229.916 164.291 228.111 164.291 225.862Z" fill="url(#paint29_linear)"/>
<path d="M169.011 53.6788H167.676V223.539H169.011V53.6788Z" fill="url(#paint30_linear)"/>
<defs>
<linearGradient id="paint0_linear" x1="180.224" y1="315.457" x2="180.224" y2="245.437" gradientUnits="userSpaceOnUse">
<stop stop-color="#A4FFFF"/>
<stop offset="1" stop-color="#A4FFFF" stop-opacity="0"/>
</linearGradient>
<linearGradient id="paint1_linear" x1="180.227" y1="315.456" x2="180.227" y2="245.438" gradientUnits="userSpaceOnUse">
<stop stop-color="#A4FFFF"/>
<stop offset="1" stop-color="#A4FFFF" stop-opacity="0"/>
</linearGradient>
<linearGradient id="paint2_linear" x1="-2.52995" y1="205.897" x2="-2.52995" y2="135.856" gradientUnits="userSpaceOnUse">
<stop stop-color="#A4FFFF"/>
<stop offset="1" stop-color="#A4FFFF" stop-opacity="0"/>
</linearGradient>
<linearGradient id="paint3_linear" x1="47.5572" y1="111.226" x2="47.5572" y2="41.2065" gradientUnits="userSpaceOnUse">
<stop stop-color="#A4FFFF"/>
<stop offset="1" stop-color="#A4FFFF" stop-opacity="0"/>
</linearGradient>
<linearGradient id="paint4_linear" x1="47.5568" y1="111.225" x2="47.5568" y2="41.2073" gradientUnits="userSpaceOnUse">
<stop stop-color="#A4FFFF"/>
<stop offset="1" stop-color="#A4FFFF" stop-opacity="0"/>
</linearGradient>
<linearGradient id="paint5_linear" x1="87.7945" y1="131.675" x2="87.7945" y2="61.6535" gradientUnits="userSpaceOnUse">
<stop stop-color="#A4FFFF"/>
<stop offset="1" stop-color="#A4FFFF" stop-opacity="0"/>
</linearGradient>
<linearGradient id="paint6_linear" x1="87.7944" y1="131.676" x2="87.7944" y2="61.6568" gradientUnits="userSpaceOnUse">
<stop stop-color="#A4FFFF"/>
<stop offset="1" stop-color="#A4FFFF" stop-opacity="0"/>
</linearGradient>
<linearGradient id="paint7_linear" x1="153.431" y1="361.411" x2="153.431" y2="291.41" gradientUnits="userSpaceOnUse">
<stop stop-color="#A4FFFF"/>
<stop offset="1" stop-color="#A4FFFF" stop-opacity="0"/>
</linearGradient>
<linearGradient id="paint8_linear" x1="153.432" y1="361.404" x2="153.432" y2="291.386" gradientUnits="userSpaceOnUse">
<stop stop-color="#A4FFFF"/>
<stop offset="1" stop-color="#A4FFFF" stop-opacity="0"/>
</linearGradient>
<linearGradient id="paint9_linear" x1="215.771" y1="102.282" x2="215.771" y2="32.2625" gradientUnits="userSpaceOnUse">
<stop stop-color="#A4FFFF"/>
<stop offset="1" stop-color="#A4FFFF" stop-opacity="0"/>
</linearGradient>
<linearGradient id="paint10_linear" x1="215.77" y1="102.281" x2="215.77" y2="32.2631" gradientUnits="userSpaceOnUse">
<stop stop-color="#A4FFFF"/>
<stop offset="1" stop-color="#A4FFFF" stop-opacity="0"/>
</linearGradient>
<linearGradient id="paint11_linear" x1="104.593" y1="98.3314" x2="104.593" y2="28.3118" gradientUnits="userSpaceOnUse">
<stop stop-color="#A4FFFF"/>
<stop offset="1" stop-color="#A4FFFF" stop-opacity="0"/>
</linearGradient>
<linearGradient id="paint12_linear" x1="104.594" y1="108.508" x2="104.594" y2="73.4979" gradientUnits="userSpaceOnUse">
<stop stop-color="#A4FFFF"/>
<stop offset="1" stop-color="#A4FFFF" stop-opacity="0"/>
</linearGradient>
<linearGradient id="paint13_linear" x1="256.542" y1="321.981" x2="256.542" y2="251.961" gradientUnits="userSpaceOnUse">
<stop stop-color="#A4FFFF"/>
<stop offset="1" stop-color="#A4FFFF" stop-opacity="0"/>
</linearGradient>
<linearGradient id="paint14_linear" x1="256.542" y1="332.157" x2="256.542" y2="297.148" gradientUnits="userSpaceOnUse">
<stop stop-color="#A4FFFF"/>
<stop offset="1" stop-color="#A4FFFF" stop-opacity="0"/>
</linearGradient>
<linearGradient id="paint15_linear" x1="24.771" y1="86.2508" x2="24.771" y2="16.2096" gradientUnits="userSpaceOnUse">
<stop stop-color="#A4FFFF"/>
<stop offset="1" stop-color="#A4FFFF" stop-opacity="0"/>
</linearGradient>
<linearGradient id="paint16_linear" x1="24.7709" y1="96.435" x2="24.7709" y2="61.4254" gradientUnits="userSpaceOnUse">
<stop stop-color="#A4FFFF"/>
<stop offset="1" stop-color="#A4FFFF" stop-opacity="0"/>
</linearGradient>
<linearGradient id="paint17_linear" x1="155.018" y1="24.6352" x2="155.018" y2="-45.3847" gradientUnits="userSpaceOnUse">
<stop stop-color="#A4FFFF"/>
<stop offset="1" stop-color="#A4FFFF" stop-opacity="0"/>
</linearGradient>
<linearGradient id="paint18_linear" x1="155.02" y1="34.8104" x2="155.02" y2="-0.195754" gradientUnits="userSpaceOnUse">
<stop stop-color="#A4FFFF"/>
<stop offset="1" stop-color="#A4FFFF" stop-opacity="0"/>
</linearGradient>
<linearGradient id="paint19_linear" x1="98.957" y1="350.188" x2="98.957" y2="280.168" gradientUnits="userSpaceOnUse">
<stop stop-color="#A4FFFF"/>
<stop offset="1" stop-color="#A4FFFF" stop-opacity="0"/>
</linearGradient>
<linearGradient id="paint20_linear" x1="98.9557" y1="350.188" x2="98.9557" y2="280.168" gradientUnits="userSpaceOnUse">
<stop stop-color="#A4FFFF"/>
<stop offset="1" stop-color="#A4FFFF" stop-opacity="0"/>
</linearGradient>
<linearGradient id="paint21_linear" x1="214.887" y1="302.964" x2="214.887" y2="232.923" gradientUnits="userSpaceOnUse">
<stop stop-color="#A4FFFF"/>
<stop offset="1" stop-color="#A4FFFF" stop-opacity="0"/>
</linearGradient>
<linearGradient id="paint22_linear" x1="214.888" y1="302.971" x2="214.888" y2="232.952" gradientUnits="userSpaceOnUse">
<stop stop-color="#A4FFFF"/>
<stop offset="1" stop-color="#A4FFFF" stop-opacity="0"/>
</linearGradient>
<linearGradient id="paint23_linear" x1="20.7346" y1="510.33" x2="20.7346" y2="385.631" gradientUnits="userSpaceOnUse">
<stop stop-color="#A4FFFF"/>
<stop offset="1" stop-color="#A4FFFF" stop-opacity="0"/>
</linearGradient>
<linearGradient id="paint24_linear" x1="20.7358" y1="479.128" x2="20.7358" y2="249.739" gradientUnits="userSpaceOnUse">
<stop stop-color="#A4FFFF"/>
<stop offset="1" stop-color="#A4FFFF" stop-opacity="0"/>
</linearGradient>
<linearGradient id="paint25_linear" x1="191.548" y1="334.534" x2="191.548" y2="209.835" gradientUnits="userSpaceOnUse">
<stop stop-color="#A4FFFF"/>
<stop offset="1" stop-color="#A4FFFF" stop-opacity="0"/>
</linearGradient>
<linearGradient id="paint26_linear" x1="191.55" y1="303.331" x2="191.55" y2="73.9432" gradientUnits="userSpaceOnUse">
<stop stop-color="#A4FFFF"/>
<stop offset="1" stop-color="#A4FFFF" stop-opacity="0"/>
</linearGradient>
<linearGradient id="paint27_linear" x1="83.0447" y1="424.523" x2="83.0447" y2="299.825" gradientUnits="userSpaceOnUse">
<stop stop-color="#A4FFFF"/>
<stop offset="1" stop-color="#A4FFFF" stop-opacity="0"/>
</linearGradient>
<linearGradient id="paint28_linear" x1="83.0461" y1="393.319" x2="83.0461" y2="163.932" gradientUnits="userSpaceOnUse">
<stop stop-color="#A4FFFF"/>
<stop offset="1" stop-color="#A4FFFF" stop-opacity="0"/>
</linearGradient>
<linearGradient id="paint29_linear" x1="168.33" y1="186.369" x2="168.33" y2="61.632" gradientUnits="userSpaceOnUse">
<stop stop-color="#A4FFFF"/>
<stop offset="1" stop-color="#A4FFFF" stop-opacity="0"/>
</linearGradient>
<linearGradient id="paint30_linear" x1="168.33" y1="185.724" x2="168.33" y2="58.8085" gradientUnits="userSpaceOnUse">
<stop stop-color="#A4FFFF"/>
<stop offset="1" stop-color="#A4FFFF" stop-opacity="0"/>
</linearGradient>
</defs>
</svg>
