<svg width="13" height="13" viewBox="0 0 13 13" fill="none" xmlns="http://www.w3.org/2000/svg">
<path d="M12.3929 5.30232H6.62678C6.62678 5.90198 6.62678 7.10131 6.6231 7.70097H9.96443C9.83639 8.30063 9.38242 9.14016 8.74099 9.56292C8.74038 9.56232 8.73977 9.56652 8.73854 9.56592C7.88575 10.129 6.76033 10.2567 5.9247 10.0888C4.61488 9.82857 3.5783 8.87871 3.15741 7.67218C3.15986 7.67039 3.1617 7.6536 3.16354 7.6524C2.90011 6.90402 2.90011 5.90198 3.16354 5.30232H3.16293C3.50233 4.20014 4.57016 3.19451 5.88181 2.91926C6.93677 2.69559 8.12713 2.93785 9.00259 3.75699C9.11899 3.64305 10.6138 2.18347 10.7259 2.06474C7.73504 -0.643934 2.94605 0.30893 1.15409 3.80676H1.15348C1.15348 3.80676 1.15409 3.80676 1.15041 3.81336C0.263927 5.53139 0.300685 7.55585 1.15654 9.19173C1.15409 9.19353 1.15225 9.19473 1.15041 9.19653C1.92601 10.7017 3.33753 11.856 5.03821 12.2956C6.84488 12.7693 9.14411 12.4455 10.6843 11.0525C10.6849 11.0531 10.6855 11.0537 10.6861 11.0543C11.991 9.87894 12.8034 7.87667 12.3929 5.30232Z" fill="white"/>
</svg>
