<svg width="1440" height="453" viewBox="0 0 1440 453" fill="none" xmlns="http://www.w3.org/2000/svg">
<path d="M20.1264 40.5287H16.4785V504.944H20.1264V40.5287Z" fill="url(#paint0_linear)"/>
<path d="M14.1807 40.7473C14.1807 38.4856 16.0411 36.6252 18.3028 36.6252C20.5645 36.6252 22.425 38.4856 22.425 40.7473C22.425 43.009 20.5645 44.8695 18.3028 44.8695C16.0411 44.833 14.1807 43.009 14.1807 40.7473Z" fill="url(#paint1_linear)"/>
<path d="M46.0268 99.7707H42.3789V445.739H46.0268V99.7707Z" fill="url(#paint2_linear)"/>
<path d="M40.1172 99.9529C40.1172 97.6912 41.9776 95.8307 44.2393 95.8307C46.501 95.8307 48.3615 97.6912 48.3615 99.9529C48.3615 102.215 46.5375 104.075 44.2393 104.075C41.9411 104.075 40.1172 102.215 40.1172 99.9529Z" fill="url(#paint3_linear)"/>
<path d="M31.8725 43.7385H28.2246V501.77H31.8725V43.7385Z" fill="url(#paint4_linear)"/>
<path d="M25.9268 43.9205C25.9268 41.6588 27.7872 39.7984 30.0489 39.7984C32.3106 39.7984 34.171 41.6588 34.171 43.9205C34.171 46.1823 32.3106 48.0427 30.0489 48.0427C27.7507 48.0427 25.9268 46.2187 25.9268 43.9205Z" fill="url(#paint5_linear)"/>
<path d="M103.481 102.907H99.833V442.601H103.481V102.907Z" fill="url(#paint6_linear)"/>
<path d="M97.5352 103.09C97.5352 100.828 99.3956 98.9674 101.657 98.9674C103.919 98.9674 105.779 100.828 105.779 103.09C105.779 105.351 103.919 107.212 101.657 107.212C99.3956 107.212 97.5352 105.388 97.5352 103.09Z" fill="url(#paint7_linear)"/>
<path d="M165.094 72.8487H161.446V472.66H165.094V72.8487Z" fill="url(#paint8_linear)"/>
<path d="M159.148 73.0308C159.148 70.7691 161.009 68.9087 163.271 68.9087C165.532 68.9087 167.393 70.7691 167.393 73.0308C167.393 75.2925 165.532 77.153 163.271 77.153C161.009 77.153 159.148 75.329 159.148 73.0308Z" fill="url(#paint9_linear)"/>
<path d="M91.6616 35.8592H88.0137V509.614H91.6616V35.8592Z" fill="url(#paint10_linear)"/>
<path d="M85.7158 36.0779C85.7158 33.8162 87.5762 31.9557 89.838 31.9557C92.0997 31.9557 93.9601 33.8162 93.9601 36.0779C93.9601 38.3396 92.0997 40.2 89.838 40.2C87.5762 40.1636 85.7158 38.3396 85.7158 36.0779Z" fill="url(#paint11_linear)"/>
<path d="M113.513 68.5443H109.865V476.965H113.513V68.5443Z" fill="url(#paint12_linear)"/>
<path d="M107.567 68.7265C107.567 66.4648 109.428 64.6044 111.69 64.6044C113.951 64.6044 115.812 66.4648 115.812 68.7265C115.812 70.9883 113.951 72.8487 111.69 72.8487C109.428 72.8487 107.567 71.0247 107.567 68.7265Z" fill="url(#paint13_linear)"/>
<path d="M208.724 112.502H205.076V432.971H208.724V112.502Z" fill="url(#paint14_linear)"/>
<path d="M202.814 112.721C202.814 110.459 204.675 108.598 206.937 108.598C209.198 108.598 211.059 110.459 211.059 112.721C211.059 114.982 209.198 116.843 206.937 116.843C204.638 116.806 202.814 114.982 202.814 112.721Z" fill="url(#paint15_linear)"/>
<path d="M190.666 113.888H187.019V431.584H190.666V113.888Z" fill="url(#paint16_linear)"/>
<path d="M188.843 118.228C191.119 118.228 192.965 116.383 192.965 114.106C192.965 111.83 191.119 109.984 188.843 109.984C186.566 109.984 184.721 111.83 184.721 114.106C184.721 116.383 186.566 118.228 188.843 118.228Z" fill="url(#paint17_linear)"/>
<path d="M286.534 75.2934H282.886V470.18H286.534V75.2934Z" fill="url(#paint18_linear)"/>
<path d="M280.588 75.512C280.588 73.2503 282.448 71.3899 284.71 71.3899C286.972 71.3899 288.832 73.2503 288.832 75.512C288.832 77.7737 286.972 79.6342 284.71 79.6342C282.412 79.5977 280.588 77.7737 280.588 75.512Z" fill="url(#paint19_linear)"/>
<path d="M298.645 99.5516H294.997V445.884H298.645V99.5516Z" fill="url(#paint20_linear)"/>
<path d="M292.735 99.7703C292.735 97.5086 294.596 95.6482 296.857 95.6482C299.119 95.6482 300.98 97.5086 300.98 99.7703C300.98 102.032 299.119 103.892 296.857 103.892C294.559 103.892 292.735 102.032 292.735 99.7703Z" fill="url(#paint21_linear)"/>
<path d="M246.698 65.5895H243.05V479.883H246.698V65.5895Z" fill="url(#paint22_linear)"/>
<path d="M240.752 65.808C240.752 63.5463 242.612 61.6859 244.874 61.6859C247.136 61.6859 248.996 63.5463 248.996 65.808C248.996 68.0697 247.136 69.9302 244.874 69.9302C242.612 69.9302 240.752 68.0697 240.752 65.808Z" fill="url(#paint23_linear)"/>
<path d="M358.434 3.94006H354.786V541.569H358.434V3.94006Z" fill="url(#paint24_linear)"/>
<path d="M352.488 4.12216C352.488 1.86045 354.349 1.52588e-05 356.61 1.52588e-05C358.872 1.52588e-05 360.733 1.86045 360.733 4.12216C360.733 6.38387 358.872 8.2443 356.61 8.2443C354.349 8.2443 352.488 6.38387 352.488 4.12216Z" fill="url(#paint25_linear)"/>
<path d="M371.165 34.1083H367.517V511.365H371.165V34.1083Z" fill="url(#paint26_linear)"/>
<path d="M365.219 34.327C365.219 32.0653 367.079 30.2048 369.341 30.2048C371.603 30.2048 373.463 32.0653 373.463 34.327C373.463 36.5887 371.603 38.4491 369.341 38.4491C367.043 38.4126 365.219 36.5887 365.219 34.327Z" fill="url(#paint27_linear)"/>
<path d="M402.756 18.5318H399.108V526.978H402.756V18.5318Z" fill="url(#paint28_linear)"/>
<path d="M396.811 18.7138C396.811 16.4521 398.671 14.5917 400.933 14.5917C403.194 14.5917 405.055 16.4521 405.055 18.7138C405.055 20.9755 403.194 22.8359 400.933 22.8359C398.634 22.8359 396.811 21.012 396.811 18.7138Z" fill="url(#paint29_linear)"/>
<path d="M393.38 32.1017H389.732V513.407H393.38V32.1017Z" fill="url(#paint30_linear)"/>
<path d="M387.435 32.2839C387.435 30.0222 389.295 28.1618 391.557 28.1618C393.818 28.1618 395.679 30.0222 395.679 32.2839C395.679 34.5457 393.818 36.4061 391.557 36.4061C389.295 36.4061 387.435 34.5821 387.435 32.2839Z" fill="url(#paint31_linear)"/>
<path d="M375.469 77.372H371.821V468.136H375.469V77.372Z" fill="url(#paint32_linear)"/>
<path d="M369.523 77.5542C369.523 75.2925 371.384 73.4321 373.646 73.4321C375.907 73.4321 377.768 75.2925 377.768 77.5542C377.768 79.8159 375.907 81.6763 373.646 81.6763C371.347 81.6763 369.523 79.8524 369.523 77.5542Z" fill="url(#paint33_linear)"/>
<path d="M407.133 39.142H403.485V506.33H407.133V39.142Z" fill="url(#paint34_linear)"/>
<path d="M405.31 43.4828C407.586 43.4828 409.432 41.6373 409.432 39.3607C409.432 37.0841 407.586 35.2385 405.31 35.2385C403.033 35.2385 401.188 37.0841 401.188 39.3607C401.188 41.6373 403.033 43.4828 405.31 43.4828Z" fill="url(#paint35_linear)"/>
<path d="M415.377 104.731H411.729V440.741H415.377V104.731Z" fill="url(#paint36_linear)"/>
<path d="M409.432 104.95C409.432 102.688 411.292 100.828 413.554 100.828C415.816 100.828 417.676 102.688 417.676 104.95C417.676 107.212 415.816 109.072 413.554 109.072C411.256 109.072 409.432 107.212 409.432 104.95Z" fill="url(#paint37_linear)"/>
<path d="M492.749 63.1091H489.102V482.364H492.749V63.1091Z" fill="url(#paint38_linear)"/>
<path d="M486.804 63.3277C486.804 61.066 488.664 59.2056 490.926 59.2056C493.188 59.2056 495.048 61.066 495.048 63.3277C495.048 65.5894 493.188 67.4499 490.926 67.4499C488.664 67.4499 486.804 65.5894 486.804 63.3277Z" fill="url(#paint39_linear)"/>
<path d="M516.024 111.919H512.376V433.555H516.024V111.919Z" fill="url(#paint40_linear)"/>
<path d="M510.078 112.137C510.078 109.876 511.939 108.015 514.2 108.015C516.462 108.015 518.322 109.876 518.322 112.137C518.322 114.399 516.462 116.259 514.2 116.259C511.939 116.223 510.078 114.399 510.078 112.137Z" fill="url(#paint41_linear)"/>
<path d="M546.52 105.279H542.872V440.23H546.52V105.279Z" fill="url(#paint42_linear)"/>
<path d="M544.696 109.583C546.973 109.583 548.819 107.738 548.819 105.461C548.819 103.185 546.973 101.339 544.696 101.339C542.42 101.339 540.574 103.185 540.574 105.461C540.574 107.738 542.42 109.583 544.696 109.583Z" fill="url(#paint43_linear)"/>
<path d="M595.439 50.9614H591.791V494.511H595.439V50.9614Z" fill="url(#paint44_linear)"/>
<path d="M589.493 51.1799C589.493 48.9182 591.317 47.0577 593.615 47.0577C595.877 47.0577 597.737 48.9182 597.737 51.1799C597.737 53.4416 595.877 55.302 593.615 55.302C591.354 55.2655 589.493 53.4416 589.493 51.1799Z" fill="url(#paint45_linear)"/>
<path d="M641.548 5.36243H637.9V540.11H641.548V5.36243Z" fill="url(#paint46_linear)"/>
<path d="M639.725 9.70311C642.001 9.70311 643.847 7.85757 643.847 5.58098C643.847 3.30438 642.001 1.45883 639.725 1.45883C637.448 1.45883 635.603 3.30438 635.603 5.58098C635.603 7.85757 637.448 9.70311 639.725 9.70311Z" fill="url(#paint47_linear)"/>
<path d="M652.711 69.1643H649.063V476.308H652.711V69.1643Z" fill="url(#paint48_linear)"/>
<path d="M646.765 69.3829C646.765 67.1212 648.626 65.2608 650.887 65.2608C653.149 65.2608 655.009 67.1212 655.009 69.3829C655.009 71.6446 653.149 73.5051 650.887 73.5051C648.626 73.4686 646.765 71.6446 646.765 69.3829Z" fill="url(#paint49_linear)"/>
<path d="M662.853 36.7348H659.205V508.775H662.853V36.7348Z" fill="url(#paint50_linear)"/>
<path d="M656.943 36.9168C656.943 34.6551 658.803 32.7947 661.065 32.7947C663.327 32.7947 665.187 34.6187 665.187 36.9168C665.187 39.1785 663.327 41.039 661.065 41.039C658.767 41.039 656.943 39.215 656.943 36.9168Z" fill="url(#paint51_linear)"/>
<path d="M669.638 96.4514H665.99V449.059H669.638V96.4514Z" fill="url(#paint52_linear)"/>
<path d="M663.691 96.6336C663.691 94.3719 665.552 92.5114 667.814 92.5114C670.075 92.5114 671.936 94.3719 671.936 96.6336C671.936 98.8953 670.075 100.756 667.814 100.756C665.552 100.756 663.691 98.9318 663.691 96.6336Z" fill="url(#paint53_linear)"/>
<path d="M728.26 11.6739H724.612V533.836H728.26V11.6739Z" fill="url(#paint54_linear)"/>
<path d="M726.436 15.9783C728.712 15.9783 730.558 14.1327 730.558 11.8561C730.558 9.57955 728.712 7.73401 726.436 7.73401C724.159 7.73401 722.313 9.57955 722.313 11.8561C722.313 14.1327 724.159 15.9783 726.436 15.9783Z" fill="url(#paint55_linear)"/>
<path d="M740.079 83.8289H736.431V461.68H740.079V83.8289Z" fill="url(#paint56_linear)"/>
<path d="M734.133 84.011C734.133 81.7493 735.993 79.8889 738.255 79.8889C740.517 79.8889 742.377 81.7493 742.377 84.011C742.377 86.2728 740.517 88.1332 738.255 88.1332C735.957 88.1332 734.133 86.2728 734.133 84.011Z" fill="url(#paint57_linear)"/>
<path d="M786.298 109.584H782.65V435.926H786.298V109.584Z" fill="url(#paint58_linear)"/>
<path d="M780.352 109.766C780.352 107.504 782.212 105.643 784.474 105.643C786.735 105.643 788.596 107.504 788.596 109.766C788.596 112.027 786.735 113.888 784.474 113.888C782.212 113.888 780.352 112.064 780.352 109.766Z" fill="url(#paint59_linear)"/>
<path d="M741.319 5.39883H737.671V540.073H741.319V5.39883Z" fill="url(#paint60_linear)"/>
<path d="M739.495 9.73963C741.772 9.73963 743.617 7.89409 743.617 5.61749C743.617 3.3409 741.772 1.49535 739.495 1.49535C737.219 1.49535 735.373 3.3409 735.373 5.61749C735.373 7.89409 737.219 9.73963 739.495 9.73963Z" fill="url(#paint61_linear)"/>
<path d="M800.89 59.2055H797.242V486.303H800.89V59.2055Z" fill="url(#paint62_linear)"/>
<path d="M799.066 63.5098C801.342 63.5098 803.188 61.6643 803.188 59.3877C803.188 57.1111 801.342 55.2655 799.066 55.2655C796.789 55.2655 794.943 57.1111 794.943 59.3877C794.943 61.6643 796.789 63.5098 799.066 63.5098Z" fill="url(#paint63_linear)"/>
<path d="M856.082 52.7487H852.435V492.76H856.082V52.7487Z" fill="url(#paint64_linear)"/>
<path d="M850.136 52.9308C850.136 50.6691 851.997 48.8087 854.258 48.8087C856.52 48.8087 858.381 50.6691 858.381 52.9308C858.381 55.1925 856.52 57.0529 854.258 57.0529C851.997 57.0529 850.136 55.229 850.136 52.9308Z" fill="url(#paint65_linear)"/>
<path d="M887.199 31.1534H883.551V514.283H887.199V31.1534Z" fill="url(#paint66_linear)"/>
<path d="M881.289 31.372C881.289 29.1102 883.15 27.2498 885.411 27.2498C887.673 27.2498 889.533 29.1102 889.533 31.372C889.533 33.6337 887.673 35.4941 885.411 35.4941C883.113 35.4941 881.289 33.6337 881.289 31.372Z" fill="url(#paint67_linear)"/>
<path d="M816.576 19.2977H812.928V526.139H816.576V19.2977Z" fill="url(#paint68_linear)"/>
<path d="M810.629 19.5162C810.629 17.2545 812.49 15.3941 814.752 15.3941C817.013 15.3941 818.874 17.2545 818.874 19.5162C818.874 21.7779 817.013 23.6384 814.752 23.6384C812.49 23.6384 810.629 21.7779 810.629 19.5162Z" fill="url(#paint69_linear)"/>
<path d="M888.622 111.152H884.974V434.284H888.622V111.152Z" fill="url(#paint70_linear)"/>
<path d="M882.712 111.37C882.712 109.109 884.572 107.248 886.834 107.248C889.096 107.248 890.956 109.109 890.956 111.37C890.956 113.632 889.096 115.493 886.834 115.493C884.536 115.493 882.712 113.632 882.712 111.37Z" fill="url(#paint71_linear)"/>
<path d="M877.751 81.7137H874.103V463.76H877.751V81.7137Z" fill="url(#paint72_linear)"/>
<path d="M871.841 81.9324C871.841 79.6707 873.702 77.8103 875.963 77.8103C878.225 77.8103 880.086 79.6707 880.086 81.9324C880.086 84.1941 878.225 86.0545 875.963 86.0545C873.665 86.0181 871.841 84.1941 871.841 81.9324Z" fill="url(#paint73_linear)"/>
<path d="M951.366 17.7657H947.718V527.671H951.366V17.7657Z" fill="url(#paint74_linear)"/>
<path d="M945.456 17.9844C945.456 15.7227 947.317 13.8623 949.578 13.8623C951.84 13.8623 953.7 15.7227 953.7 17.9844C953.7 20.2461 951.84 22.1065 949.578 22.1065C947.28 22.1065 945.456 20.2461 945.456 17.9844Z" fill="url(#paint75_linear)"/>
<path d="M915.179 115.384H911.531V430.126H915.179V115.384Z" fill="url(#paint76_linear)"/>
<path d="M909.232 115.566C909.232 113.304 911.093 111.444 913.355 111.444C915.616 111.444 917.477 113.304 917.477 115.566C917.477 117.828 915.616 119.688 913.355 119.688C911.093 119.688 909.232 117.864 909.232 115.566Z" fill="url(#paint77_linear)"/>
<path d="M979.783 79.415H976.135V466.057H979.783V79.415Z" fill="url(#paint78_linear)"/>
<path d="M973.837 79.6337C973.837 77.372 975.697 75.5116 977.959 75.5116C980.221 75.5116 982.081 77.372 982.081 79.6337C982.081 81.8954 980.221 83.7559 977.959 83.7559C975.697 83.7559 973.837 81.8954 973.837 79.6337Z" fill="url(#paint79_linear)"/>
<path d="M986.86 86.3102H983.212V459.2H986.86V86.3102Z" fill="url(#paint80_linear)"/>
<path d="M980.95 86.4923C980.95 84.2306 982.811 82.3701 985.072 82.3701C987.334 82.3701 989.194 84.2306 989.194 86.4923C989.194 88.754 987.334 90.6144 985.072 90.6144C982.774 90.6144 980.95 88.7905 980.95 86.4923Z" fill="url(#paint81_linear)"/>
<path d="M1062.92 35.9323H1059.27V509.541H1062.92V35.9323Z" fill="url(#paint82_linear)"/>
<path d="M1061.09 40.2731C1063.37 40.2731 1065.22 38.4275 1065.22 36.1509C1065.22 33.8743 1063.37 32.0288 1061.09 32.0288C1058.82 32.0288 1056.97 33.8743 1056.97 36.1509C1056.97 38.4275 1058.82 40.2731 1061.09 40.2731Z" fill="url(#paint83_linear)"/>
<path d="M1017.39 7.36874H1013.75V538.14H1017.39V7.36874Z" fill="url(#paint84_linear)"/>
<path d="M1011.45 7.55097C1011.45 5.28927 1013.31 3.42883 1015.57 3.42883C1017.83 3.42883 1019.69 5.28927 1019.69 7.55097C1019.69 9.81268 1017.83 11.6731 1015.57 11.6731C1013.31 11.6731 1011.45 9.84915 1011.45 7.55097Z" fill="url(#paint85_linear)"/>
<path d="M1059.27 14.7744H1055.62V530.699H1059.27V14.7744Z" fill="url(#paint86_linear)"/>
<path d="M1053.32 14.9929C1053.32 12.7312 1055.19 10.8707 1057.45 10.8707C1059.71 10.8707 1061.57 12.7312 1061.57 14.9929C1061.57 17.2546 1059.71 19.115 1057.45 19.115C1055.19 19.115 1053.32 17.2546 1053.32 14.9929Z" fill="url(#paint87_linear)"/>
<path d="M1163.56 46.4014H1159.92V499.071H1163.56V46.4014Z" fill="url(#paint88_linear)"/>
<path d="M1157.62 46.62C1157.62 44.3583 1159.48 42.4978 1161.74 42.4978C1164 42.4978 1165.86 44.3583 1165.86 46.62C1165.86 48.8817 1164 50.7421 1161.74 50.7421C1159.48 50.7056 1157.62 48.8817 1157.62 46.62Z" fill="url(#paint89_linear)"/>
<path d="M1159.11 81.6407H1155.47V463.832H1159.11V81.6407Z" fill="url(#paint90_linear)"/>
<path d="M1153.2 81.8594C1153.2 79.5977 1155.06 77.7372 1157.33 77.7372C1159.59 77.7372 1161.45 79.5977 1161.45 81.8594C1161.45 84.1211 1159.59 85.9815 1157.33 85.9815C1155.06 85.9815 1153.2 84.1211 1153.2 81.8594Z" fill="url(#paint91_linear)"/>
<path d="M1216.31 89.1912H1212.67V456.281H1216.31V89.1912Z" fill="url(#paint92_linear)"/>
<path d="M1210.37 89.4099C1210.37 87.1482 1212.19 85.2878 1214.49 85.2878C1216.75 85.2878 1218.61 87.1482 1218.61 89.4099C1218.61 91.6716 1216.75 93.5321 1214.49 93.5321C1212.23 93.5321 1210.37 91.6716 1210.37 89.4099Z" fill="url(#paint93_linear)"/>
<path d="M1162.62 45.599H1158.97V499.873H1162.62V45.599Z" fill="url(#paint94_linear)"/>
<path d="M1156.67 45.8175C1156.67 43.5558 1158.53 41.6954 1160.79 41.6954C1163.05 41.6954 1164.91 43.5558 1164.91 45.8175C1164.91 48.0793 1163.05 49.9397 1160.79 49.9397C1158.53 49.9397 1156.67 48.0793 1156.67 45.8175Z" fill="url(#paint95_linear)"/>
<path d="M1183.77 57.0538H1180.13V488.383H1183.77V57.0538Z" fill="url(#paint96_linear)"/>
<path d="M1177.83 57.2725C1177.83 55.0108 1179.69 53.1503 1181.95 53.1503C1184.21 53.1503 1186.07 54.9743 1186.07 57.2725C1186.07 59.5342 1184.21 61.3946 1181.95 61.3946C1179.65 61.3946 1177.83 59.5342 1177.83 57.2725Z" fill="url(#paint97_linear)"/>
<path d="M1239.88 81.3485H1236.23V464.16H1239.88V81.3485Z" fill="url(#paint98_linear)"/>
<path d="M1233.93 81.5307C1233.93 79.269 1235.79 77.4086 1238.05 77.4086C1240.32 77.4086 1242.18 79.269 1242.18 81.5307C1242.18 83.7924 1240.32 85.6529 1238.05 85.6529C1235.76 85.6529 1233.93 83.8289 1233.93 81.5307Z" fill="url(#paint99_linear)"/>
<path d="M1219.56 76.5695H1215.91V468.902H1219.56V76.5695Z" fill="url(#paint100_linear)"/>
<path d="M1213.61 76.7883C1213.61 74.5266 1215.47 72.6661 1217.74 72.6661C1220 72.6661 1221.86 74.5266 1221.86 76.7883C1221.86 79.05 1220 80.9104 1217.74 80.9104C1215.47 80.8739 1213.61 79.05 1213.61 76.7883Z" fill="url(#paint101_linear)"/>
<path d="M1243.56 7.77061H1239.92V537.703H1243.56V7.77061Z" fill="url(#paint102_linear)"/>
<path d="M1237.62 7.98916C1237.62 5.72745 1239.48 3.86702 1241.74 3.86702C1244 3.86702 1245.86 5.72745 1245.86 7.98916C1245.86 10.2509 1244 12.1113 1241.74 12.1113C1239.48 12.0748 1237.62 10.2509 1237.62 7.98916Z" fill="url(#paint103_linear)"/>
<path d="M1303.02 103.893H1299.38V441.616H1303.02V103.893Z" fill="url(#paint104_linear)"/>
<path d="M1297.08 104.075C1297.08 101.813 1298.94 99.9525 1301.2 99.9525C1303.46 99.9525 1305.32 101.813 1305.32 104.075C1305.32 106.336 1303.46 108.197 1301.2 108.197C1298.9 108.197 1297.08 106.373 1297.08 104.075Z" fill="url(#paint105_linear)"/>
<path d="M1374.89 112.976H1371.24V432.496H1374.89V112.976Z" fill="url(#paint106_linear)"/>
<path d="M1368.98 113.194C1368.98 110.933 1370.84 109.072 1373.1 109.072C1375.36 109.072 1377.22 110.933 1377.22 113.194C1377.22 115.456 1375.36 117.317 1373.1 117.317C1370.8 117.28 1368.98 115.456 1368.98 113.194Z" fill="url(#paint107_linear)"/>
<path d="M1382 18.8237H1378.35V526.65H1382V18.8237Z" fill="url(#paint108_linear)"/>
<path d="M1376.06 19.0424C1376.06 16.7807 1377.92 14.9203 1380.18 14.9203C1382.44 14.9203 1384.3 16.7807 1384.3 19.0424C1384.3 21.3041 1382.44 23.1646 1380.18 23.1646C1377.92 23.1646 1376.06 21.3041 1376.06 19.0424Z" fill="url(#paint109_linear)"/>
<path d="M1343.99 99.4055H1340.34V446.03H1343.99V99.4055Z" fill="url(#paint110_linear)"/>
<path d="M1338.04 99.6243C1338.04 97.3625 1339.9 95.5021 1342.17 95.5021C1344.43 95.5021 1346.29 97.3625 1346.29 99.6243C1346.29 101.886 1344.43 103.746 1342.17 103.746C1339.87 103.746 1338.04 101.886 1338.04 99.6243Z" fill="url(#paint111_linear)"/>
<path d="M1412.53 34.8743H1408.89V510.599H1412.53V34.8743Z" fill="url(#paint112_linear)"/>
<path d="M1406.62 35.0929C1406.62 32.8312 1408.49 30.9708 1410.75 30.9708C1413.01 30.9708 1414.87 32.7947 1414.87 35.0929C1414.87 37.3546 1413.01 39.215 1410.75 39.215C1408.49 39.215 1406.62 37.3546 1406.62 35.0929Z" fill="url(#paint113_linear)"/>
<path d="M1439.93 14.7744H1436.28V530.699H1439.93V14.7744Z" fill="url(#paint114_linear)"/>
<path d="M1433.98 14.9929C1433.98 12.7312 1435.84 10.8707 1438.11 10.8707C1440.37 10.8707 1442.23 12.7312 1442.23 14.9929C1442.23 17.2546 1440.37 19.115 1438.11 19.115C1435.84 19.115 1433.98 17.2546 1433.98 14.9929Z" fill="url(#paint115_linear)"/>
<path d="M1429.5 74.3449H1425.85V471.092H1429.5V74.3449Z" fill="url(#paint116_linear)"/>
<path d="M1423.59 74.5635C1423.59 72.3018 1425.45 70.4414 1427.71 70.4414C1429.97 70.4414 1431.83 72.3018 1431.83 74.5635C1431.83 76.8252 1429.97 78.6857 1427.71 78.6857C1425.41 78.6857 1423.59 76.8252 1423.59 74.5635Z" fill="url(#paint117_linear)"/>
<path d="M1437.63 86.4554H1433.98V459.017H1437.63V86.4554Z" fill="url(#paint118_linear)"/>
<path d="M1431.69 86.674C1431.69 84.4123 1433.55 82.5518 1435.81 82.5518C1438.07 82.5518 1439.93 84.4123 1439.93 86.674C1439.93 88.9357 1438.11 90.7961 1435.81 90.7961C1433.51 90.7961 1431.69 88.9357 1431.69 86.674Z" fill="url(#paint119_linear)"/>
<defs>
<linearGradient id="paint0_linear" x1="18.3101" y1="504.981" x2="18.3101" y2="36.1239" gradientUnits="userSpaceOnUse">
<stop stop-color="#0F1145" stop-opacity="0"/>
<stop offset="1" stop-color="white" stop-opacity="0.07"/>
</linearGradient>
<linearGradient id="paint1_linear" x1="18.3201" y1="44.8701" x2="18.3201" y2="36.547" gradientUnits="userSpaceOnUse">
<stop stop-color="#0F1145" stop-opacity="0"/>
<stop offset="1" stop-color="white" stop-opacity="0.07"/>
</linearGradient>
<linearGradient id="paint2_linear" x1="44.2105" y1="445.766" x2="44.2105" y2="96.4894" gradientUnits="userSpaceOnUse">
<stop stop-color="#0F1145" stop-opacity="0"/>
<stop offset="1" stop-color="white" stop-opacity="0.07"/>
</linearGradient>
<linearGradient id="paint3_linear" x1="44.2567" y1="104.076" x2="44.2567" y2="95.7526" gradientUnits="userSpaceOnUse">
<stop stop-color="#0F1145" stop-opacity="0"/>
<stop offset="1" stop-color="white" stop-opacity="0.07"/>
</linearGradient>
<linearGradient id="paint4_linear" x1="30.0562" y1="501.807" x2="30.0562" y2="39.3943" gradientUnits="userSpaceOnUse">
<stop stop-color="#0F1145" stop-opacity="0"/>
<stop offset="1" stop-color="white" stop-opacity="0.07"/>
</linearGradient>
<linearGradient id="paint5_linear" x1="30.0662" y1="48.0433" x2="30.0662" y2="39.7202" gradientUnits="userSpaceOnUse">
<stop stop-color="#0F1145" stop-opacity="0"/>
<stop offset="1" stop-color="white" stop-opacity="0.07"/>
</linearGradient>
<linearGradient id="paint6_linear" x1="101.665" y1="442.628" x2="101.665" y2="99.6856" gradientUnits="userSpaceOnUse">
<stop stop-color="#0F1145" stop-opacity="0"/>
<stop offset="1" stop-color="white" stop-opacity="0.07"/>
</linearGradient>
<linearGradient id="paint7_linear" x1="101.675" y1="107.212" x2="101.675" y2="98.8892" gradientUnits="userSpaceOnUse">
<stop stop-color="#0F1145" stop-opacity="0"/>
<stop offset="1" stop-color="white" stop-opacity="0.07"/>
</linearGradient>
<linearGradient id="paint8_linear" x1="163.278" y1="472.691" x2="163.278" y2="69.0567" gradientUnits="userSpaceOnUse">
<stop stop-color="#0F1145" stop-opacity="0"/>
<stop offset="1" stop-color="white" stop-opacity="0.07"/>
</linearGradient>
<linearGradient id="paint9_linear" x1="163.288" y1="77.1536" x2="163.288" y2="68.8305" gradientUnits="userSpaceOnUse">
<stop stop-color="#0F1145" stop-opacity="0"/>
<stop offset="1" stop-color="white" stop-opacity="0.07"/>
</linearGradient>
<linearGradient id="paint10_linear" x1="89.8453" y1="509.651" x2="89.8453" y2="31.3659" gradientUnits="userSpaceOnUse">
<stop stop-color="#0F1145" stop-opacity="0"/>
<stop offset="1" stop-color="white" stop-opacity="0.07"/>
</linearGradient>
<linearGradient id="paint11_linear" x1="89.8553" y1="40.2007" x2="89.8553" y2="31.8776" gradientUnits="userSpaceOnUse">
<stop stop-color="#0F1145" stop-opacity="0"/>
<stop offset="1" stop-color="white" stop-opacity="0.07"/>
</linearGradient>
<linearGradient id="paint12_linear" x1="111.697" y1="476.997" x2="111.697" y2="64.6707" gradientUnits="userSpaceOnUse">
<stop stop-color="#0F1145" stop-opacity="0"/>
<stop offset="1" stop-color="white" stop-opacity="0.07"/>
</linearGradient>
<linearGradient id="paint13_linear" x1="111.707" y1="72.8493" x2="111.707" y2="64.5262" gradientUnits="userSpaceOnUse">
<stop stop-color="#0F1145" stop-opacity="0"/>
<stop offset="1" stop-color="white" stop-opacity="0.07"/>
</linearGradient>
<linearGradient id="paint14_linear" x1="206.908" y1="432.996" x2="206.908" y2="109.463" gradientUnits="userSpaceOnUse">
<stop stop-color="#0F1145" stop-opacity="0"/>
<stop offset="1" stop-color="white" stop-opacity="0.07"/>
</linearGradient>
<linearGradient id="paint15_linear" x1="206.954" y1="116.843" x2="206.954" y2="108.52" gradientUnits="userSpaceOnUse">
<stop stop-color="#0F1145" stop-opacity="0"/>
<stop offset="1" stop-color="white" stop-opacity="0.07"/>
</linearGradient>
<linearGradient id="paint16_linear" x1="188.85" y1="431.61" x2="188.85" y2="110.875" gradientUnits="userSpaceOnUse">
<stop stop-color="#0F1145" stop-opacity="0"/>
<stop offset="1" stop-color="white" stop-opacity="0.07"/>
</linearGradient>
<linearGradient id="paint17_linear" x1="188.86" y1="118.229" x2="188.86" y2="109.906" gradientUnits="userSpaceOnUse">
<stop stop-color="#0F1145" stop-opacity="0"/>
<stop offset="1" stop-color="white" stop-opacity="0.07"/>
</linearGradient>
<linearGradient id="paint18_linear" x1="284.717" y1="470.211" x2="284.717" y2="71.5482" gradientUnits="userSpaceOnUse">
<stop stop-color="#0F1145" stop-opacity="0"/>
<stop offset="1" stop-color="white" stop-opacity="0.07"/>
</linearGradient>
<linearGradient id="paint19_linear" x1="284.727" y1="79.6348" x2="284.727" y2="71.3117" gradientUnits="userSpaceOnUse">
<stop stop-color="#0F1145" stop-opacity="0"/>
<stop offset="1" stop-color="white" stop-opacity="0.07"/>
</linearGradient>
<linearGradient id="paint20_linear" x1="296.829" y1="445.912" x2="296.829" y2="96.2669" gradientUnits="userSpaceOnUse">
<stop stop-color="#0F1145" stop-opacity="0"/>
<stop offset="1" stop-color="white" stop-opacity="0.07"/>
</linearGradient>
<linearGradient id="paint21_linear" x1="296.875" y1="103.893" x2="296.875" y2="95.57" gradientUnits="userSpaceOnUse">
<stop stop-color="#0F1145" stop-opacity="0"/>
<stop offset="1" stop-color="white" stop-opacity="0.07"/>
</linearGradient>
<linearGradient id="paint22_linear" x1="244.881" y1="479.916" x2="244.881" y2="61.6601" gradientUnits="userSpaceOnUse">
<stop stop-color="#0F1145" stop-opacity="0"/>
<stop offset="1" stop-color="white" stop-opacity="0.07"/>
</linearGradient>
<linearGradient id="paint23_linear" x1="244.891" y1="69.9308" x2="244.891" y2="61.6077" gradientUnits="userSpaceOnUse">
<stop stop-color="#0F1145" stop-opacity="0"/>
<stop offset="1" stop-color="white" stop-opacity="0.07"/>
</linearGradient>
<linearGradient id="paint24_linear" x1="356.618" y1="541.612" x2="356.618" y2="-1.15904" gradientUnits="userSpaceOnUse">
<stop stop-color="#0F1145" stop-opacity="0"/>
<stop offset="1" stop-color="white" stop-opacity="0.07"/>
</linearGradient>
<linearGradient id="paint25_linear" x1="356.628" y1="8.24495" x2="356.628" y2="-0.0781771" gradientUnits="userSpaceOnUse">
<stop stop-color="#0F1145" stop-opacity="0"/>
<stop offset="1" stop-color="white" stop-opacity="0.07"/>
</linearGradient>
<linearGradient id="paint26_linear" x1="369.348" y1="511.402" x2="369.348" y2="29.5818" gradientUnits="userSpaceOnUse">
<stop stop-color="#0F1145" stop-opacity="0"/>
<stop offset="1" stop-color="white" stop-opacity="0.07"/>
</linearGradient>
<linearGradient id="paint27_linear" x1="369.358" y1="38.4498" x2="369.358" y2="30.1266" gradientUnits="userSpaceOnUse">
<stop stop-color="#0F1145" stop-opacity="0"/>
<stop offset="1" stop-color="white" stop-opacity="0.07"/>
</linearGradient>
<linearGradient id="paint28_linear" x1="400.94" y1="527.018" x2="400.94" y2="13.7095" gradientUnits="userSpaceOnUse">
<stop stop-color="#0F1145" stop-opacity="0"/>
<stop offset="1" stop-color="white" stop-opacity="0.07"/>
</linearGradient>
<linearGradient id="paint29_linear" x1="400.95" y1="22.8366" x2="400.95" y2="14.5135" gradientUnits="userSpaceOnUse">
<stop stop-color="#0F1145" stop-opacity="0"/>
<stop offset="1" stop-color="white" stop-opacity="0.07"/>
</linearGradient>
<linearGradient id="paint30_linear" x1="391.564" y1="513.445" x2="391.564" y2="27.5368" gradientUnits="userSpaceOnUse">
<stop stop-color="#0F1145" stop-opacity="0"/>
<stop offset="1" stop-color="white" stop-opacity="0.07"/>
</linearGradient>
<linearGradient id="paint31_linear" x1="391.574" y1="36.4067" x2="391.574" y2="28.0836" gradientUnits="userSpaceOnUse">
<stop stop-color="#0F1145" stop-opacity="0"/>
<stop offset="1" stop-color="white" stop-opacity="0.07"/>
</linearGradient>
<linearGradient id="paint32_linear" x1="373.653" y1="468.167" x2="373.653" y2="73.6658" gradientUnits="userSpaceOnUse">
<stop stop-color="#0F1145" stop-opacity="0"/>
<stop offset="1" stop-color="white" stop-opacity="0.07"/>
</linearGradient>
<linearGradient id="paint33_linear" x1="373.663" y1="81.677" x2="373.663" y2="73.3539" gradientUnits="userSpaceOnUse">
<stop stop-color="#0F1145" stop-opacity="0"/>
<stop offset="1" stop-color="white" stop-opacity="0.07"/>
</linearGradient>
<linearGradient id="paint34_linear" x1="405.317" y1="506.367" x2="405.317" y2="34.711" gradientUnits="userSpaceOnUse">
<stop stop-color="#0F1145" stop-opacity="0"/>
<stop offset="1" stop-color="white" stop-opacity="0.07"/>
</linearGradient>
<linearGradient id="paint35_linear" x1="405.327" y1="43.4835" x2="405.327" y2="35.1603" gradientUnits="userSpaceOnUse">
<stop stop-color="#0F1145" stop-opacity="0"/>
<stop offset="1" stop-color="white" stop-opacity="0.07"/>
</linearGradient>
<linearGradient id="paint36_linear" x1="413.561" y1="440.767" x2="413.561" y2="101.545" gradientUnits="userSpaceOnUse">
<stop stop-color="#0F1145" stop-opacity="0"/>
<stop offset="1" stop-color="white" stop-opacity="0.07"/>
</linearGradient>
<linearGradient id="paint37_linear" x1="413.571" y1="109.073" x2="413.571" y2="100.75" gradientUnits="userSpaceOnUse">
<stop stop-color="#0F1145" stop-opacity="0"/>
<stop offset="1" stop-color="white" stop-opacity="0.07"/>
</linearGradient>
<linearGradient id="paint38_linear" x1="490.933" y1="482.397" x2="490.933" y2="59.1327" gradientUnits="userSpaceOnUse">
<stop stop-color="#0F1145" stop-opacity="0"/>
<stop offset="1" stop-color="white" stop-opacity="0.07"/>
</linearGradient>
<linearGradient id="paint39_linear" x1="490.943" y1="67.4505" x2="490.943" y2="59.1274" gradientUnits="userSpaceOnUse">
<stop stop-color="#0F1145" stop-opacity="0"/>
<stop offset="1" stop-color="white" stop-opacity="0.07"/>
</linearGradient>
<linearGradient id="paint40_linear" x1="514.208" y1="433.58" x2="514.208" y2="108.868" gradientUnits="userSpaceOnUse">
<stop stop-color="#0F1145" stop-opacity="0"/>
<stop offset="1" stop-color="white" stop-opacity="0.07"/>
</linearGradient>
<linearGradient id="paint41_linear" x1="514.218" y1="116.26" x2="514.218" y2="107.937" gradientUnits="userSpaceOnUse">
<stop stop-color="#0F1145" stop-opacity="0"/>
<stop offset="1" stop-color="white" stop-opacity="0.07"/>
</linearGradient>
<linearGradient id="paint42_linear" x1="544.704" y1="440.257" x2="544.704" y2="102.102" gradientUnits="userSpaceOnUse">
<stop stop-color="#0F1145" stop-opacity="0"/>
<stop offset="1" stop-color="white" stop-opacity="0.07"/>
</linearGradient>
<linearGradient id="paint43_linear" x1="544.714" y1="109.584" x2="544.714" y2="101.261" gradientUnits="userSpaceOnUse">
<stop stop-color="#0F1145" stop-opacity="0"/>
<stop offset="1" stop-color="white" stop-opacity="0.07"/>
</linearGradient>
<linearGradient id="paint44_linear" x1="593.623" y1="494.546" x2="593.623" y2="46.7545" gradientUnits="userSpaceOnUse">
<stop stop-color="#0F1145" stop-opacity="0"/>
<stop offset="1" stop-color="white" stop-opacity="0.07"/>
</linearGradient>
<linearGradient id="paint45_linear" x1="593.633" y1="55.3027" x2="593.633" y2="46.9795" gradientUnits="userSpaceOnUse">
<stop stop-color="#0F1145" stop-opacity="0"/>
<stop offset="1" stop-color="white" stop-opacity="0.07"/>
</linearGradient>
<linearGradient id="paint46_linear" x1="639.732" y1="540.152" x2="639.732" y2="0.290652" gradientUnits="userSpaceOnUse">
<stop stop-color="#0F1145" stop-opacity="0"/>
<stop offset="1" stop-color="white" stop-opacity="0.07"/>
</linearGradient>
<linearGradient id="paint47_linear" x1="639.742" y1="9.70377" x2="639.742" y2="1.38064" gradientUnits="userSpaceOnUse">
<stop stop-color="#0F1145" stop-opacity="0"/>
<stop offset="1" stop-color="white" stop-opacity="0.07"/>
</linearGradient>
<linearGradient id="paint48_linear" x1="650.895" y1="476.34" x2="650.895" y2="65.3028" gradientUnits="userSpaceOnUse">
<stop stop-color="#0F1145" stop-opacity="0"/>
<stop offset="1" stop-color="white" stop-opacity="0.07"/>
</linearGradient>
<linearGradient id="paint49_linear" x1="650.905" y1="73.5057" x2="650.905" y2="65.1826" gradientUnits="userSpaceOnUse">
<stop stop-color="#0F1145" stop-opacity="0"/>
<stop offset="1" stop-color="white" stop-opacity="0.07"/>
</linearGradient>
<linearGradient id="paint50_linear" x1="661.036" y1="508.812" x2="661.036" y2="32.2577" gradientUnits="userSpaceOnUse">
<stop stop-color="#0F1145" stop-opacity="0"/>
<stop offset="1" stop-color="white" stop-opacity="0.07"/>
</linearGradient>
<linearGradient id="paint51_linear" x1="661.082" y1="41.0396" x2="661.082" y2="32.7165" gradientUnits="userSpaceOnUse">
<stop stop-color="#0F1145" stop-opacity="0"/>
<stop offset="1" stop-color="white" stop-opacity="0.07"/>
</linearGradient>
<linearGradient id="paint52_linear" x1="667.821" y1="449.087" x2="667.821" y2="93.1072" gradientUnits="userSpaceOnUse">
<stop stop-color="#0F1145" stop-opacity="0"/>
<stop offset="1" stop-color="white" stop-opacity="0.07"/>
</linearGradient>
<linearGradient id="paint53_linear" x1="667.831" y1="100.756" x2="667.831" y2="92.4333" gradientUnits="userSpaceOnUse">
<stop stop-color="#0F1145" stop-opacity="0"/>
<stop offset="1" stop-color="white" stop-opacity="0.07"/>
</linearGradient>
<linearGradient id="paint54_linear" x1="726.443" y1="533.877" x2="726.443" y2="6.72151" gradientUnits="userSpaceOnUse">
<stop stop-color="#0F1145" stop-opacity="0"/>
<stop offset="1" stop-color="white" stop-opacity="0.07"/>
</linearGradient>
<linearGradient id="paint55_linear" x1="726.453" y1="15.9789" x2="726.453" y2="7.65582" gradientUnits="userSpaceOnUse">
<stop stop-color="#0F1145" stop-opacity="0"/>
<stop offset="1" stop-color="white" stop-opacity="0.07"/>
</linearGradient>
<linearGradient id="paint56_linear" x1="738.263" y1="461.71" x2="738.263" y2="80.2452" gradientUnits="userSpaceOnUse">
<stop stop-color="#0F1145" stop-opacity="0"/>
<stop offset="1" stop-color="white" stop-opacity="0.07"/>
</linearGradient>
<linearGradient id="paint57_linear" x1="738.272" y1="88.1338" x2="738.272" y2="79.8107" gradientUnits="userSpaceOnUse">
<stop stop-color="#0F1145" stop-opacity="0"/>
<stop offset="1" stop-color="white" stop-opacity="0.07"/>
</linearGradient>
<linearGradient id="paint58_linear" x1="784.482" y1="435.952" x2="784.482" y2="106.488" gradientUnits="userSpaceOnUse">
<stop stop-color="#0F1145" stop-opacity="0"/>
<stop offset="1" stop-color="white" stop-opacity="0.07"/>
</linearGradient>
<linearGradient id="paint59_linear" x1="784.491" y1="113.888" x2="784.491" y2="105.565" gradientUnits="userSpaceOnUse">
<stop stop-color="#0F1145" stop-opacity="0"/>
<stop offset="1" stop-color="white" stop-opacity="0.07"/>
</linearGradient>
<linearGradient id="paint60_linear" x1="739.503" y1="540.116" x2="739.503" y2="0.32775" gradientUnits="userSpaceOnUse">
<stop stop-color="#0F1145" stop-opacity="0"/>
<stop offset="1" stop-color="white" stop-opacity="0.07"/>
</linearGradient>
<linearGradient id="paint61_linear" x1="739.513" y1="9.74028" x2="739.513" y2="1.41715" gradientUnits="userSpaceOnUse">
<stop stop-color="#0F1145" stop-opacity="0"/>
<stop offset="1" stop-color="white" stop-opacity="0.07"/>
</linearGradient>
<linearGradient id="paint62_linear" x1="799.073" y1="486.337" x2="799.073" y2="55.1547" gradientUnits="userSpaceOnUse">
<stop stop-color="#0F1145" stop-opacity="0"/>
<stop offset="1" stop-color="white" stop-opacity="0.07"/>
</linearGradient>
<linearGradient id="paint63_linear" x1="799.083" y1="63.5105" x2="799.083" y2="55.1873" gradientUnits="userSpaceOnUse">
<stop stop-color="#0F1145" stop-opacity="0"/>
<stop offset="1" stop-color="white" stop-opacity="0.07"/>
</linearGradient>
<linearGradient id="paint64_linear" x1="854.266" y1="492.795" x2="854.266" y2="48.5755" gradientUnits="userSpaceOnUse">
<stop stop-color="#0F1145" stop-opacity="0"/>
<stop offset="1" stop-color="white" stop-opacity="0.07"/>
</linearGradient>
<linearGradient id="paint65_linear" x1="854.276" y1="57.0536" x2="854.276" y2="48.7305" gradientUnits="userSpaceOnUse">
<stop stop-color="#0F1145" stop-opacity="0"/>
<stop offset="1" stop-color="white" stop-opacity="0.07"/>
</linearGradient>
<linearGradient id="paint66_linear" x1="885.382" y1="514.321" x2="885.382" y2="26.5712" gradientUnits="userSpaceOnUse">
<stop stop-color="#0F1145" stop-opacity="0"/>
<stop offset="1" stop-color="white" stop-opacity="0.07"/>
</linearGradient>
<linearGradient id="paint67_linear" x1="885.429" y1="35.4947" x2="885.429" y2="27.1716" gradientUnits="userSpaceOnUse">
<stop stop-color="#0F1145" stop-opacity="0"/>
<stop offset="1" stop-color="white" stop-opacity="0.07"/>
</linearGradient>
<linearGradient id="paint68_linear" x1="814.759" y1="526.179" x2="814.759" y2="14.4906" gradientUnits="userSpaceOnUse">
<stop stop-color="#0F1145" stop-opacity="0"/>
<stop offset="1" stop-color="white" stop-opacity="0.07"/>
</linearGradient>
<linearGradient id="paint69_linear" x1="814.769" y1="23.639" x2="814.769" y2="15.3159" gradientUnits="userSpaceOnUse">
<stop stop-color="#0F1145" stop-opacity="0"/>
<stop offset="1" stop-color="white" stop-opacity="0.07"/>
</linearGradient>
<linearGradient id="paint70_linear" x1="886.805" y1="434.309" x2="886.805" y2="108.087" gradientUnits="userSpaceOnUse">
<stop stop-color="#0F1145" stop-opacity="0"/>
<stop offset="1" stop-color="white" stop-opacity="0.07"/>
</linearGradient>
<linearGradient id="paint71_linear" x1="886.851" y1="115.493" x2="886.851" y2="107.17" gradientUnits="userSpaceOnUse">
<stop stop-color="#0F1145" stop-opacity="0"/>
<stop offset="1" stop-color="white" stop-opacity="0.07"/>
</linearGradient>
<linearGradient id="paint72_linear" x1="875.935" y1="463.79" x2="875.935" y2="78.0903" gradientUnits="userSpaceOnUse">
<stop stop-color="#0F1145" stop-opacity="0"/>
<stop offset="1" stop-color="white" stop-opacity="0.07"/>
</linearGradient>
<linearGradient id="paint73_linear" x1="875.981" y1="86.0552" x2="875.981" y2="77.7321" gradientUnits="userSpaceOnUse">
<stop stop-color="#0F1145" stop-opacity="0"/>
<stop offset="1" stop-color="white" stop-opacity="0.07"/>
</linearGradient>
<linearGradient id="paint74_linear" x1="949.549" y1="527.711" x2="949.549" y2="12.9296" gradientUnits="userSpaceOnUse">
<stop stop-color="#0F1145" stop-opacity="0"/>
<stop offset="1" stop-color="white" stop-opacity="0.07"/>
</linearGradient>
<linearGradient id="paint75_linear" x1="949.596" y1="22.1072" x2="949.596" y2="13.7841" gradientUnits="userSpaceOnUse">
<stop stop-color="#0F1145" stop-opacity="0"/>
<stop offset="1" stop-color="white" stop-opacity="0.07"/>
</linearGradient>
<linearGradient id="paint76_linear" x1="913.362" y1="430.151" x2="913.362" y2="112.399" gradientUnits="userSpaceOnUse">
<stop stop-color="#0F1145" stop-opacity="0"/>
<stop offset="1" stop-color="white" stop-opacity="0.07"/>
</linearGradient>
<linearGradient id="paint77_linear" x1="913.372" y1="119.689" x2="913.372" y2="111.366" gradientUnits="userSpaceOnUse">
<stop stop-color="#0F1145" stop-opacity="0"/>
<stop offset="1" stop-color="white" stop-opacity="0.07"/>
</linearGradient>
<linearGradient id="paint78_linear" x1="977.967" y1="466.088" x2="977.967" y2="75.7479" gradientUnits="userSpaceOnUse">
<stop stop-color="#0F1145" stop-opacity="0"/>
<stop offset="1" stop-color="white" stop-opacity="0.07"/>
</linearGradient>
<linearGradient id="paint79_linear" x1="977.976" y1="83.7565" x2="977.976" y2="75.4334" gradientUnits="userSpaceOnUse">
<stop stop-color="#0F1145" stop-opacity="0"/>
<stop offset="1" stop-color="white" stop-opacity="0.07"/>
</linearGradient>
<linearGradient id="paint80_linear" x1="985.044" y1="459.229" x2="985.044" y2="82.7736" gradientUnits="userSpaceOnUse">
<stop stop-color="#0F1145" stop-opacity="0"/>
<stop offset="1" stop-color="white" stop-opacity="0.07"/>
</linearGradient>
<linearGradient id="paint81_linear" x1="985.09" y1="90.6151" x2="985.09" y2="82.292" gradientUnits="userSpaceOnUse">
<stop stop-color="#0F1145" stop-opacity="0"/>
<stop offset="1" stop-color="white" stop-opacity="0.07"/>
</linearGradient>
<linearGradient id="paint82_linear" x1="1061.1" y1="509.578" x2="1061.1" y2="31.4404" gradientUnits="userSpaceOnUse">
<stop stop-color="#0F1145" stop-opacity="0"/>
<stop offset="1" stop-color="white" stop-opacity="0.07"/>
</linearGradient>
<linearGradient id="paint83_linear" x1="1061.11" y1="40.2737" x2="1061.11" y2="31.9506" gradientUnits="userSpaceOnUse">
<stop stop-color="#0F1145" stop-opacity="0"/>
<stop offset="1" stop-color="white" stop-opacity="0.07"/>
</linearGradient>
<linearGradient id="paint84_linear" x1="1015.58" y1="538.182" x2="1015.58" y2="2.33468" gradientUnits="userSpaceOnUse">
<stop stop-color="#0F1145" stop-opacity="0"/>
<stop offset="1" stop-color="white" stop-opacity="0.07"/>
</linearGradient>
<linearGradient id="paint85_linear" x1="1015.59" y1="11.6738" x2="1015.59" y2="3.35064" gradientUnits="userSpaceOnUse">
<stop stop-color="#0F1145" stop-opacity="0"/>
<stop offset="1" stop-color="white" stop-opacity="0.07"/>
</linearGradient>
<linearGradient id="paint86_linear" x1="1057.45" y1="530.739" x2="1057.45" y2="9.88111" gradientUnits="userSpaceOnUse">
<stop stop-color="#0F1145" stop-opacity="0"/>
<stop offset="1" stop-color="white" stop-opacity="0.07"/>
</linearGradient>
<linearGradient id="paint87_linear" x1="1057.46" y1="19.1157" x2="1057.46" y2="10.7925" gradientUnits="userSpaceOnUse">
<stop stop-color="#0F1145" stop-opacity="0"/>
<stop offset="1" stop-color="white" stop-opacity="0.07"/>
</linearGradient>
<linearGradient id="paint88_linear" x1="1161.75" y1="499.107" x2="1161.75" y2="42.1081" gradientUnits="userSpaceOnUse">
<stop stop-color="#0F1145" stop-opacity="0"/>
<stop offset="1" stop-color="white" stop-opacity="0.07"/>
</linearGradient>
<linearGradient id="paint89_linear" x1="1161.76" y1="50.7428" x2="1161.76" y2="42.4196" gradientUnits="userSpaceOnUse">
<stop stop-color="#0F1145" stop-opacity="0"/>
<stop offset="1" stop-color="white" stop-opacity="0.07"/>
</linearGradient>
<linearGradient id="paint90_linear" x1="1157.3" y1="463.863" x2="1157.3" y2="78.0158" gradientUnits="userSpaceOnUse">
<stop stop-color="#0F1145" stop-opacity="0"/>
<stop offset="1" stop-color="white" stop-opacity="0.07"/>
</linearGradient>
<linearGradient id="paint91_linear" x1="1157.34" y1="85.9822" x2="1157.34" y2="77.6591" gradientUnits="userSpaceOnUse">
<stop stop-color="#0F1145" stop-opacity="0"/>
<stop offset="1" stop-color="white" stop-opacity="0.07"/>
</linearGradient>
<linearGradient id="paint92_linear" x1="1214.5" y1="456.31" x2="1214.5" y2="85.7096" gradientUnits="userSpaceOnUse">
<stop stop-color="#0F1145" stop-opacity="0"/>
<stop offset="1" stop-color="white" stop-opacity="0.07"/>
</linearGradient>
<linearGradient id="paint93_linear" x1="1214.51" y1="93.5327" x2="1214.51" y2="85.2096" gradientUnits="userSpaceOnUse">
<stop stop-color="#0F1145" stop-opacity="0"/>
<stop offset="1" stop-color="white" stop-opacity="0.07"/>
</linearGradient>
<linearGradient id="paint94_linear" x1="1160.8" y1="499.909" x2="1160.8" y2="41.2905" gradientUnits="userSpaceOnUse">
<stop stop-color="#0F1145" stop-opacity="0"/>
<stop offset="1" stop-color="white" stop-opacity="0.07"/>
</linearGradient>
<linearGradient id="paint95_linear" x1="1160.81" y1="49.9403" x2="1160.81" y2="41.6172" gradientUnits="userSpaceOnUse">
<stop stop-color="#0F1145" stop-opacity="0"/>
<stop offset="1" stop-color="white" stop-opacity="0.07"/>
</linearGradient>
<linearGradient id="paint96_linear" x1="1181.96" y1="488.417" x2="1181.96" y2="52.9629" gradientUnits="userSpaceOnUse">
<stop stop-color="#0F1145" stop-opacity="0"/>
<stop offset="1" stop-color="white" stop-opacity="0.07"/>
</linearGradient>
<linearGradient id="paint97_linear" x1="1181.97" y1="61.3953" x2="1181.97" y2="53.0721" gradientUnits="userSpaceOnUse">
<stop stop-color="#0F1145" stop-opacity="0"/>
<stop offset="1" stop-color="white" stop-opacity="0.07"/>
</linearGradient>
<linearGradient id="paint98_linear" x1="1238.06" y1="464.191" x2="1238.06" y2="77.7178" gradientUnits="userSpaceOnUse">
<stop stop-color="#0F1145" stop-opacity="0"/>
<stop offset="1" stop-color="white" stop-opacity="0.07"/>
</linearGradient>
<linearGradient id="paint99_linear" x1="1238.07" y1="85.6535" x2="1238.07" y2="77.3304" gradientUnits="userSpaceOnUse">
<stop stop-color="#0F1145" stop-opacity="0"/>
<stop offset="1" stop-color="white" stop-opacity="0.07"/>
</linearGradient>
<linearGradient id="paint100_linear" x1="1217.74" y1="468.934" x2="1217.74" y2="72.8485" gradientUnits="userSpaceOnUse">
<stop stop-color="#0F1145" stop-opacity="0"/>
<stop offset="1" stop-color="white" stop-opacity="0.07"/>
</linearGradient>
<linearGradient id="paint101_linear" x1="1217.75" y1="80.9111" x2="1217.75" y2="72.5879" gradientUnits="userSpaceOnUse">
<stop stop-color="#0F1145" stop-opacity="0"/>
<stop offset="1" stop-color="white" stop-opacity="0.07"/>
</linearGradient>
<linearGradient id="paint102_linear" x1="1241.75" y1="537.745" x2="1241.75" y2="2.74451" gradientUnits="userSpaceOnUse">
<stop stop-color="#0F1145" stop-opacity="0"/>
<stop offset="1" stop-color="white" stop-opacity="0.07"/>
</linearGradient>
<linearGradient id="paint103_linear" x1="1241.76" y1="12.1119" x2="1241.76" y2="3.78883" gradientUnits="userSpaceOnUse">
<stop stop-color="#0F1145" stop-opacity="0"/>
<stop offset="1" stop-color="white" stop-opacity="0.07"/>
</linearGradient>
<linearGradient id="paint104_linear" x1="1301.21" y1="441.643" x2="1301.21" y2="100.689" gradientUnits="userSpaceOnUse">
<stop stop-color="#0F1145" stop-opacity="0"/>
<stop offset="1" stop-color="white" stop-opacity="0.07"/>
</linearGradient>
<linearGradient id="paint105_linear" x1="1301.22" y1="108.197" x2="1301.22" y2="99.8743" gradientUnits="userSpaceOnUse">
<stop stop-color="#0F1145" stop-opacity="0"/>
<stop offset="1" stop-color="white" stop-opacity="0.07"/>
</linearGradient>
<linearGradient id="paint106_linear" x1="1373.07" y1="432.522" x2="1373.07" y2="109.945" gradientUnits="userSpaceOnUse">
<stop stop-color="#0F1145" stop-opacity="0"/>
<stop offset="1" stop-color="white" stop-opacity="0.07"/>
</linearGradient>
<linearGradient id="paint107_linear" x1="1373.12" y1="117.317" x2="1373.12" y2="108.994" gradientUnits="userSpaceOnUse">
<stop stop-color="#0F1145" stop-opacity="0"/>
<stop offset="1" stop-color="white" stop-opacity="0.07"/>
</linearGradient>
<linearGradient id="paint108_linear" x1="1380.19" y1="526.69" x2="1380.19" y2="14.0072" gradientUnits="userSpaceOnUse">
<stop stop-color="#0F1145" stop-opacity="0"/>
<stop offset="1" stop-color="white" stop-opacity="0.07"/>
</linearGradient>
<linearGradient id="paint109_linear" x1="1380.2" y1="23.1652" x2="1380.2" y2="14.8421" gradientUnits="userSpaceOnUse">
<stop stop-color="#0F1145" stop-opacity="0"/>
<stop offset="1" stop-color="white" stop-opacity="0.07"/>
</linearGradient>
<linearGradient id="paint110_linear" x1="1342.17" y1="446.058" x2="1342.17" y2="96.118" gradientUnits="userSpaceOnUse">
<stop stop-color="#0F1145" stop-opacity="0"/>
<stop offset="1" stop-color="white" stop-opacity="0.07"/>
</linearGradient>
<linearGradient id="paint111_linear" x1="1342.18" y1="103.747" x2="1342.18" y2="95.4239" gradientUnits="userSpaceOnUse">
<stop stop-color="#0F1145" stop-opacity="0"/>
<stop offset="1" stop-color="white" stop-opacity="0.07"/>
</linearGradient>
<linearGradient id="paint112_linear" x1="1410.72" y1="510.636" x2="1410.72" y2="30.3624" gradientUnits="userSpaceOnUse">
<stop stop-color="#0F1145" stop-opacity="0"/>
<stop offset="1" stop-color="white" stop-opacity="0.07"/>
</linearGradient>
<linearGradient id="paint113_linear" x1="1410.76" y1="39.2157" x2="1410.76" y2="30.8926" gradientUnits="userSpaceOnUse">
<stop stop-color="#0F1145" stop-opacity="0"/>
<stop offset="1" stop-color="white" stop-opacity="0.07"/>
</linearGradient>
<linearGradient id="paint114_linear" x1="1438.11" y1="530.739" x2="1438.11" y2="9.88111" gradientUnits="userSpaceOnUse">
<stop stop-color="#0F1145" stop-opacity="0"/>
<stop offset="1" stop-color="white" stop-opacity="0.07"/>
</linearGradient>
<linearGradient id="paint115_linear" x1="1438.12" y1="19.1157" x2="1438.12" y2="10.7925" gradientUnits="userSpaceOnUse">
<stop stop-color="#0F1145" stop-opacity="0"/>
<stop offset="1" stop-color="white" stop-opacity="0.07"/>
</linearGradient>
<linearGradient id="paint116_linear" x1="1427.68" y1="471.123" x2="1427.68" y2="70.582" gradientUnits="userSpaceOnUse">
<stop stop-color="#0F1145" stop-opacity="0"/>
<stop offset="1" stop-color="white" stop-opacity="0.07"/>
</linearGradient>
<linearGradient id="paint117_linear" x1="1427.73" y1="78.6863" x2="1427.73" y2="70.3632" gradientUnits="userSpaceOnUse">
<stop stop-color="#0F1145" stop-opacity="0"/>
<stop offset="1" stop-color="white" stop-opacity="0.07"/>
</linearGradient>
<linearGradient id="paint118_linear" x1="1435.82" y1="459.046" x2="1435.82" y2="82.9219" gradientUnits="userSpaceOnUse">
<stop stop-color="#0F1145" stop-opacity="0"/>
<stop offset="1" stop-color="white" stop-opacity="0.07"/>
</linearGradient>
<linearGradient id="paint119_linear" x1="1435.83" y1="90.7967" x2="1435.83" y2="82.4736" gradientUnits="userSpaceOnUse">
<stop stop-color="#0F1145" stop-opacity="0"/>
<stop offset="1" stop-color="white" stop-opacity="0.07"/>
</linearGradient>
</defs>
</svg>
